<svg xmlns="http://www.w3.org/2000/svg" xmlns:xlink="http://www.w3.org/1999/xlink" viewBox="0 0 1550.81 951.57"><defs><style>.cls-1{font-size:104.76px;font-family:OptimusPrinceps;letter-spacing:-0.02em;}.cls-2{letter-spacing:-0.05em;}.cls-3{letter-spacing:0em;}.cls-10,.cls-11,.cls-12,.cls-13,.cls-14,.cls-15,.cls-16,.cls-17,.cls-18,.cls-19,.cls-21,.cls-4,.cls-8{fill:none;}.cls-10,.cls-11,.cls-12,.cls-13,.cls-14,.cls-15,.cls-16,.cls-17,.cls-18,.cls-19,.cls-21,.cls-4,.cls-5,.cls-6,.cls-7,.cls-9{stroke-miterlimit:10;}.cls-4{stroke:url(#Gradiente_sem_nome_79);}.cls-5,.cls-6{fill:#1a1a1a;}.cls-10,.cls-11,.cls-14,.cls-15,.cls-16,.cls-17,.cls-18,.cls-19,.cls-5,.cls-6{stroke-width:4px;}.cls-5{stroke:url(#Gradiente_sem_nome_79-2);}.cls-6{stroke:url(#Gradiente_sem_nome_79-3);}.cls-10,.cls-21,.cls-7,.cls-9{stroke:#000;}.cls-7{stroke-width:0.25px;fill:url(#Gradiente_sem_nome_101);}.cls-9{fill:url(#Gradiente_sem_nome_69);}.cls-11{stroke:url(#Gradiente_sem_nome_18);}.cls-12{stroke:url(#Gradiente_sem_nome_26);}.cls-13{stroke:url(#Gradiente_sem_nome_26-2);}.cls-14{stroke:url(#Gradiente_sem_nome_26-3);}.cls-15{stroke:url(#Gradiente_sem_nome_26-4);}.cls-16{stroke:url(#Gradiente_sem_nome_26-5);}.cls-17{stroke:url(#Gradiente_sem_nome_26-6);}.cls-18{stroke:url(#Gradiente_sem_nome_26-7);}.cls-19{stroke:url(#Gradiente_sem_nome_26-23);}.cls-20{fill:url(#Gradiente_sem_nome_90);}</style><linearGradient id="Gradiente_sem_nome_79" x1="735.88" y1="958.99" x2="735.88" y2="958.99" gradientUnits="userSpaceOnUse"><stop offset="0" stop-color="#c8a031"/><stop offset="0.17" stop-color="#cea028"/><stop offset="0.45" stop-color="#de9e0e"/><stop offset="0.55" stop-color="#e59e03"/><stop offset="0.87" stop-color="#e5c500"/><stop offset="0.99" stop-color="#b28405"/></linearGradient><linearGradient id="Gradiente_sem_nome_79-2" x1="1058.74" y1="913.58" x2="1014.22" y2="849.97" xlink:href="#Gradiente_sem_nome_79"/><linearGradient id="Gradiente_sem_nome_79-3" x1="571.44" y1="913.58" x2="526.92" y2="849.97" xlink:href="#Gradiente_sem_nome_79"/><linearGradient id="Gradiente_sem_nome_101" x1="835.45" y1="274.71" x2="996.68" y2="431.02" gradientUnits="userSpaceOnUse"><stop offset="0.24" stop-color="#e59e03"/><stop offset="0.65" stop-color="#e5c500"/><stop offset="0.99" stop-color="#b28405"/></linearGradient><linearGradient id="Gradiente_sem_nome_69" x1="534.61" y1="94.64" x2="1450.3" y2="681.72" gradientUnits="userSpaceOnUse"><stop offset="0" stop-color="#fff"/><stop offset="0.03" stop-color="#ebebeb"/><stop offset="0.09" stop-color="#bababa"/><stop offset="0.17" stop-color="#8e8e8e"/><stop offset="0.25" stop-color="#686868"/><stop offset="0.33" stop-color="#484848"/><stop offset="0.42" stop-color="#2d2d2d"/><stop offset="0.52" stop-color="#191919"/><stop offset="0.63" stop-color="#0b0b0b"/><stop offset="0.77" stop-color="#030303"/><stop offset="1"/></linearGradient><linearGradient id="Gradiente_sem_nome_18" x1="124.46" y1="658.54" x2="865.12" y2="658.54" gradientUnits="userSpaceOnUse"><stop offset="0" stop-color="#c8a031"/><stop offset="0.1" stop-color="#cea028"/><stop offset="0.28" stop-color="#de9e0e"/><stop offset="0.34" stop-color="#e59e03"/><stop offset="0.67" stop-color="#e5c500"/><stop offset="0.99" stop-color="#b28405"/></linearGradient><linearGradient id="Gradiente_sem_nome_26" x1="833.95" y1="570.23" x2="833.95" y2="570.23" gradientUnits="userSpaceOnUse"><stop offset="0" stop-color="#c8a031"/><stop offset="0.11" stop-color="#cea028"/><stop offset="0.3" stop-color="#de9e0e"/><stop offset="0.37" stop-color="#e59e03"/><stop offset="0.69" stop-color="#e5c500"/><stop offset="0.99" stop-color="#b28405"/></linearGradient><linearGradient id="Gradiente_sem_nome_26-2" x1="833.95" y1="570.23" x2="833.95" y2="570.23" xlink:href="#Gradiente_sem_nome_26"/><linearGradient id="Gradiente_sem_nome_26-3" x1="1191.03" y1="652.71" x2="1337.77" y2="652.71" xlink:href="#Gradiente_sem_nome_26"/><linearGradient id="Gradiente_sem_nome_26-4" x1="1227.39" y1="678.4" x2="1405.15" y2="678.4" xlink:href="#Gradiente_sem_nome_26"/><linearGradient id="Gradiente_sem_nome_26-5" x1="1138.38" y1="699.78" x2="1253.36" y2="699.78" xlink:href="#Gradiente_sem_nome_26"/><linearGradient id="Gradiente_sem_nome_26-6" x1="1468.99" y1="704.19" x2="1535.44" y2="704.19" xlink:href="#Gradiente_sem_nome_26"/><linearGradient id="Gradiente_sem_nome_26-7" x1="1149.09" y1="687.52" x2="1461.89" y2="687.52" xlink:href="#Gradiente_sem_nome_26"/><linearGradient id="Gradiente_sem_nome_26-23" x1="934.6" y1="655.5" x2="1675.27" y2="655.5" xlink:href="#Gradiente_sem_nome_26"/><linearGradient id="Gradiente_sem_nome_90" x1="840.69" y1="344.08" x2="842.54" y2="344.08" gradientUnits="userSpaceOnUse"><stop offset="0" stop-color="#fff"/><stop offset="0.08" stop-color="#ddd"/><stop offset="0.2" stop-color="#aeaeae"/><stop offset="0.32" stop-color="#858585"/><stop offset="0.44" stop-color="#646464"/><stop offset="0.57" stop-color="#4b4b4b"/><stop offset="0.71" stop-color="#383838"/><stop offset="0.84" stop-color="#2e2e2e"/><stop offset="1" stop-color="#2a2a2a"/></linearGradient></defs><title>Logo_04</title><g id="Camada_1" data-name="Camada 1"><text class="cls-1" transform="translate(653.09 925.8) scale(1.03 1)">H<tspan class="cls-2" x="82.55" y="0">o</tspan><tspan class="cls-3" x="141.94" y="0">tel</tspan></text><path class="cls-4" d="M735.88,959" transform="translate(-124.46 -77.21)"/><line class="cls-5" x1="971.64" y1="881.78" x2="1101.32" y2="881.78"/><line class="cls-6" x1="484.34" y1="881.78" x2="614.02" y2="881.78"/><path class="cls-7" d="M1065.38,469.21a16.06,16.06,0,0,0-3.61-.83,24.74,24.74,0,0,0-3.86.14,3.14,3.14,0,0,0-2.44,1.43c-6.52,9.46-10.62,15.47-21.78,19.92s-23.56,6.54-36.62,6.59a157.19,157.19,0,0,1-33.16-3.89,62.24,62.24,0,0,1-24.63-11.28c-1.54-1.17-1.9-2.18-1.9-4.33-.06-23.31-.21-47.2.07-70.47,0-4.06,1.91-5.29,5.31-5.66,6.11-.65,14.62-.06,20.25-.16,7.81-.14,15.27.22,22.11.4s14.55.92,20.06,1.39a40.54,40.54,0,0,1,12.63,2.71c3.05,1.2,2.62,2,4.09,3.92s1.57,3.45,2.9,5.38c.88,1.29,1.62,2.72,2.74,4.1a19.17,19.17,0,0,0,4.32,3.83c.17.1.43.24.63.33a12.12,12.12,0,0,0,6,.73c1.86-.27,2.83-.61,3.63-2.34a224.34,224.34,0,0,1,4.4-22.25c.71-3,1.37-5.91,2-8.93s1.51-5.83,1.9-9.05c.13-1.11-.58-2-2.14-2.26a14.64,14.64,0,0,0-5.46-.47c-1.89.31-4.16.68-6.71,1.34s-6.42,1.6-9.4,2.44c-2.74.77-6.92,1.87-9.55,2.4a41.25,41.25,0,0,1-7.51,1.06c-22.53-.13-44.94.31-67.22-.21-3.87-.08-5.23-1.6-5.32-5.66-.48-21.84-.15-44.27-.12-66.12,0-3.8,2-4.44,4.72-5.78.15-.08.15,0,.43-.06a36.1,36.1,0,0,1,5.52-.29c2.48,0,7.15,0,9.8,0,3.72,0,7.05-.12,10.5-.29,3.12-.15,6-.29,9-.28,2.16,0,6.28-.07,8,0,11.2.43,23.08.92,33.09,4.33s12,8.4,15.85,17.81c.68,1.66,3.37,2.34,5.28,2.2s4.67-.43,5.72-2.23c.63-1.07.64-1.61,1.09-2.44a14.12,14.12,0,0,0,1-2.12c2-5.26,4-10.41,5.67-15.82a114.44,114.44,0,0,0,4.15-16.5c.17-1.07-1-1.94-2.36-2.11a19.55,19.55,0,0,0-5.49-.15c-.23.05-.71.15-.91.21-2.54.8-5.84,1.87-8.38,1.87-55.55.07-110.92,0-166.42,0q0-45.42,0-90.84c2,.17,3.37.28,5.48.29h5.87c2.31,0,4.6-.07,6.93-.15s4.89-.26,7.21-.42,4.49-.38,6.78-.43,4.8-.28,7.05-.14c8.59.54,17.27,1,25.17,4.54s10.74,9.69,13.9,17.61c.67,1.7,2.28,1.95,3.8,2.06s3.66-.46,4.12-1.93a90,90,0,0,0,3.13-15.75,156.54,156.54,0,0,0,.91-16.35c0-1.67.09-4.38,0-6.24a2.09,2.09,0,0,0-1.61-2,7.2,7.2,0,0,0-3.36-.29c-1.23.15-2.71.35-4,.42a26.62,26.62,0,0,0-4.05.71c-2,.45-4.21.93-6.15,1.31a28.21,28.21,0,0,1-5.54.74c-50.61,0-101.08,0-151.74,0a61.56,61.56,0,0,1-6.36-.47c-2.3-.25-5.74-.79-8.28-1.28s-5.8-1.27-8.13-1.85a44.22,44.22,0,0,1-6.1-2.14,6.26,6.26,0,0,0-3.75-.21,3.23,3.23,0,0,0-2.64,1.85,28.14,28.14,0,0,0-1.34,4.72c-.47,1.66-1,3.32-1.6,5-1.53,4-3.24,8.57-4.54,12.55a44.53,44.53,0,0,0-2.17,11.55,9.34,9.34,0,0,0,.18,2.55,7.08,7.08,0,0,0,.57,2.27,3.94,3.94,0,0,0,3.66,2.13,4.5,4.5,0,0,0,4-1.56c4.32-5.22,6.41-9.9,12.54-13.6s10-5.8,18.45-5.9c17-.19,36.46-.11,54.08,0,.15,56.27,0,113.72,0,169.55a73.09,73.09,0,0,1-.56,11.1c-.46,4.22-.9,4.46-2.75,7.18s-3.54,2.91-6.57,4.13-7.93,1.75-11.21,2.45c-1.58.33-3.69.61-3.12,2.61s1.63,2.26,3.93,2.32c14,.42,28.57.45,42.79.34,9-.06,18.21-.24,27.27-.17-.05,25.49,0,51.72-.06,76.94a36,36,0,0,1-1,9.76,15.88,15.88,0,0,1-4.08,8.21c-2.43,2.75-4.92,4.18-8.81,5.6s-10.17,2.07-14.48,2.26c-2.27.1-4.7,0-5.15,2.51s2.91,2.4,4.36,2.48c13.12.7,25.07,1.24,38.38,1.45s27.15.29,40.9.3c7.52,0,14.75,0,22.84-.13s13.86-.14,23.28-.14H1043a5.23,5.23,0,0,0,1-.07c2.62-.44,5.43-.89,8-1.32.3-.05.51-.05.69-.07s.23,0,.33,0a5.85,5.85,0,0,0,4.77-4.42c.41-1.28.72-3.31,1-4.52,1.09-4.84,2.06-9.31,3.26-14s3-9.09,4.63-13.7C1067,470.26,1066.35,469.51,1065.38,469.21Z" transform="translate(-124.46 -77.21)"/><path class="cls-8" d="M1065.38,469.21a16.06,16.06,0,0,0-3.61-.83,24.74,24.74,0,0,0-3.86.14,3.14,3.14,0,0,0-2.44,1.43c-6.52,9.46-10.62,15.47-21.78,19.92s-23.56,6.54-36.62,6.59a157.19,157.19,0,0,1-33.16-3.89,62.24,62.24,0,0,1-24.63-11.28c-1.54-1.17-1.9-2.18-1.9-4.33-.06-23.31-.21-47.2.07-70.47,0-4.06,1.91-5.29,5.31-5.66,6.11-.65,14.62-.06,20.25-.16,7.81-.14,15.27.22,22.11.4s14.55.92,20.06,1.39a40.54,40.54,0,0,1,12.63,2.71c3.05,1.2,2.62,2,4.09,3.92s1.57,3.45,2.9,5.38c.88,1.29,1.62,2.72,2.74,4.1a19.17,19.17,0,0,0,4.32,3.83c.17.1.43.24.63.33a12.12,12.12,0,0,0,6,.73c1.86-.27,2.83-.61,3.63-2.34a224.34,224.34,0,0,1,4.4-22.25c.71-3,1.37-5.91,2-8.93s1.51-5.83,1.9-9.05c.13-1.11-.58-2-2.14-2.26a14.64,14.64,0,0,0-5.46-.47c-1.89.31-4.16.68-6.71,1.34s-6.42,1.6-9.4,2.44c-2.74.77-6.92,1.87-9.55,2.4a41.25,41.25,0,0,1-7.51,1.06c-22.53-.13-44.94.31-67.22-.21-3.87-.08-5.23-1.6-5.32-5.66-.48-21.84-.15-44.27-.12-66.12,0-3.8,2-4.44,4.72-5.78.15-.08.15,0,.43-.06a36.1,36.1,0,0,1,5.52-.29c2.48,0,7.15,0,9.8,0,3.72,0,7.05-.12,10.5-.29,3.12-.15,6-.29,9-.28,2.16,0,6.28-.07,8,0,11.2.43,23.08.92,33.09,4.33s12,8.4,15.85,17.81c.68,1.66,3.37,2.34,5.28,2.2s4.67-.43,5.72-2.23c.63-1.07.64-1.61,1.09-2.44a14.12,14.12,0,0,0,1-2.12c2-5.26,4-10.41,5.67-15.82a114.44,114.44,0,0,0,4.15-16.5c.17-1.07-1-1.94-2.36-2.11a19.55,19.55,0,0,0-5.49-.15c-.23.05-.71.15-.91.21-2.54.8-5.84,1.87-8.38,1.87-55.55.07-110.92,0-166.42,0q0-45.42,0-90.84c2,.17,3.37.28,5.48.29h5.87c2.31,0,4.6-.07,6.93-.15s4.89-.26,7.21-.42,4.49-.38,6.78-.43,4.8-.28,7.05-.14c8.59.54,17.27,1,25.17,4.54s10.74,9.69,13.9,17.61c.67,1.7,2.28,1.95,3.8,2.06s3.67-.46,4.12-1.93a90,90,0,0,0,3.13-15.75,156.54,156.54,0,0,0,.91-16.35c0-1.67.09-4.38,0-6.24a2.09,2.09,0,0,0-1.61-2,7.2,7.2,0,0,0-3.36-.29c-1.23.15-2.71.35-4,.42a26.62,26.62,0,0,0-4.05.71c-2,.45-4.21.93-6.15,1.31a28.21,28.21,0,0,1-5.54.74c-50.61,0-101.08,0-151.74,0a61.56,61.56,0,0,1-6.36-.47c-2.3-.25-5.74-.79-8.28-1.28s-5.8-1.27-8.13-1.85a44.22,44.22,0,0,1-6.1-2.14,6.26,6.26,0,0,0-3.75-.21,3.23,3.23,0,0,0-2.64,1.85,28.14,28.14,0,0,0-1.34,4.72c-.47,1.66-1,3.32-1.6,5-1.53,4-3.24,8.57-4.54,12.55a44.53,44.53,0,0,0-2.17,11.55,9.34,9.34,0,0,0,.18,2.55,7.08,7.08,0,0,0,.57,2.27,3.94,3.94,0,0,0,3.66,2.13,4.5,4.5,0,0,0,4-1.56c4.32-5.22,6.41-9.9,12.54-13.6s10-5.8,18.45-5.9c17-.19,36.46-.11,54.08,0,.15,56.27,0,113.72,0,169.55a73.09,73.09,0,0,1-.56,11.1c-.46,4.22-.9,4.46-2.75,7.18s-3.54,2.91-6.57,4.13-7.93,1.75-11.21,2.45c-1.58.33-3.69.61-3.12,2.61s1.63,2.26,3.93,2.32c14,.42,28.57.45,42.79.34,9-.06,18.21-.24,27.27-.17-.05,25.49,0,51.72-.06,76.94a36,36,0,0,1-1,9.76,15.88,15.88,0,0,1-4.08,8.21c-2.43,2.75-4.92,4.18-8.81,5.6s-10.17,2.07-14.48,2.26c-2.27.1-4.7,0-5.15,2.51s2.91,2.4,4.36,2.48c13.12.7,25.07,1.24,38.38,1.45s27.15.29,40.9.3c7.52,0,14.75,0,22.84-.13s13.86-.14,23.28-.14H1043a5.23,5.23,0,0,0,1-.07c2.62-.44,5.43-.89,8-1.32.3-.05.51-.05.69-.07s.23,0,.33,0a5.85,5.85,0,0,0,4.77-4.42c.41-1.28.72-3.31,1-4.52,1.09-4.84,2.06-9.31,3.26-14s3-9.09,4.63-13.7C1067,470.26,1066.35,469.51,1065.38,469.21Z" transform="translate(-124.46 -77.21)"/><path class="cls-8" d="M1065.38,469.21a16.06,16.06,0,0,0-3.61-.83,24.74,24.74,0,0,0-3.86.14,3.14,3.14,0,0,0-2.44,1.43c-6.52,9.46-10.62,15.47-21.78,19.92s-23.56,6.54-36.62,6.59a157.19,157.19,0,0,1-33.16-3.89,62.24,62.24,0,0,1-24.63-11.28c-1.54-1.17-1.9-2.18-1.9-4.33-.06-23.31-.21-47.2.07-70.47,0-4.06,1.91-5.29,5.31-5.66,6.11-.65,14.62-.06,20.25-.16,7.81-.14,15.27.22,22.11.4s14.55.92,20.06,1.39a40.54,40.54,0,0,1,12.63,2.71c3.05,1.2,2.62,2,4.09,3.92s1.57,3.45,2.9,5.38c.88,1.29,1.62,2.72,2.74,4.1a19.17,19.17,0,0,0,4.32,3.83c.17.1.43.24.63.33a12.12,12.12,0,0,0,6,.73c1.86-.27,2.83-.61,3.63-2.34a224.34,224.34,0,0,1,4.4-22.25c.71-3,1.37-5.91,2-8.93s1.51-5.83,1.9-9.05c.13-1.11-.58-2-2.14-2.26a14.64,14.64,0,0,0-5.46-.47c-1.89.31-4.16.68-6.71,1.34s-6.42,1.6-9.4,2.44c-2.74.77-6.92,1.87-9.55,2.4a41.25,41.25,0,0,1-7.51,1.06c-22.53-.13-44.94.31-67.22-.21-3.87-.08-5.23-1.6-5.32-5.66-.48-21.84-.15-44.27-.12-66.12,0-3.8,2-4.44,4.72-5.78.15-.08.15,0,.43-.06a36.1,36.1,0,0,1,5.52-.29c2.48,0,7.15,0,9.8,0,3.72,0,7.05-.12,10.5-.29,3.12-.15,6-.29,9-.28,2.16,0,6.28-.07,8,0,11.2.43,23.08.92,33.09,4.33s12,8.4,15.85,17.81c.68,1.66,3.37,2.34,5.28,2.2s4.67-.43,5.72-2.23c.63-1.07.64-1.61,1.09-2.44a14.12,14.12,0,0,0,1-2.12c2-5.26,4-10.41,5.67-15.82a114.44,114.44,0,0,0,4.15-16.5c.17-1.07-1-1.94-2.36-2.11a19.55,19.55,0,0,0-5.49-.15c-.23.05-.71.15-.91.21-2.54.8-5.84,1.87-8.38,1.87-55.55.07-110.92,0-166.42,0q0-45.42,0-90.84c2,.17,3.37.28,5.48.29h5.87c2.31,0,4.6-.07,6.93-.15s4.89-.26,7.21-.42,4.49-.38,6.78-.43,4.8-.28,7.05-.14c8.59.54,17.27,1,25.17,4.54s10.74,9.69,13.9,17.61c.67,1.7,2.28,1.95,3.8,2.06s3.67-.46,4.12-1.93a90,90,0,0,0,3.13-15.75,156.54,156.54,0,0,0,.91-16.35c0-1.67.09-4.38,0-6.24a2.09,2.09,0,0,0-1.61-2,7.2,7.2,0,0,0-3.36-.29c-1.23.15-2.71.35-4,.42a26.62,26.62,0,0,0-4.05.71c-2,.45-4.21.93-6.15,1.31a28.21,28.21,0,0,1-5.54.74c-50.61,0-101.08,0-151.74,0a61.56,61.56,0,0,1-6.36-.47c-2.3-.25-5.74-.79-8.28-1.28s-5.8-1.27-8.13-1.85a44.22,44.22,0,0,1-6.1-2.14,6.26,6.26,0,0,0-3.75-.21,3.23,3.23,0,0,0-2.64,1.85,28.14,28.14,0,0,0-1.34,4.72c-.47,1.66-1,3.32-1.6,5-1.53,4-3.24,8.57-4.54,12.55a44.53,44.53,0,0,0-2.17,11.55,9.34,9.34,0,0,0,.18,2.55,7.08,7.08,0,0,0,.57,2.27,3.94,3.94,0,0,0,3.66,2.13,4.5,4.5,0,0,0,4-1.56c4.32-5.22,6.41-9.9,12.54-13.6s10-5.8,18.45-5.9c17-.19,36.46-.11,54.08,0,.15,56.27,0,113.72,0,169.55a73.09,73.09,0,0,1-.56,11.1c-.46,4.22-.9,4.46-2.75,7.18s-3.54,2.91-6.57,4.13-7.93,1.75-11.21,2.45c-1.58.33-3.69.61-3.12,2.61s1.63,2.26,3.93,2.32c14,.42,28.57.45,42.79.34,9-.06,18.21-.24,27.27-.17-.05,25.49,0,51.72-.06,76.94a36,36,0,0,1-1,9.76,15.88,15.88,0,0,1-4.08,8.21c-2.43,2.75-4.92,4.18-8.81,5.6s-10.17,2.07-14.48,2.26c-2.27.1-4.7,0-5.15,2.51s2.91,2.4,4.36,2.48c13.12.7,25.07,1.24,38.38,1.45s27.15.29,40.9.3c7.52,0,14.75,0,22.84-.13s13.86-.14,23.28-.14H1043a5.23,5.23,0,0,0,1-.07c2.62-.44,5.43-.89,8-1.32.3-.05.51-.05.69-.07s.23,0,.33,0a5.85,5.85,0,0,0,4.77-4.42c.41-1.28.72-3.31,1-4.52,1.09-4.84,2.06-9.31,3.26-14s3-9.09,4.63-13.7C1067,470.26,1066.35,469.51,1065.38,469.21Z" transform="translate(-124.46 -77.21)"/><path class="cls-8" d="M1065.38,469.21a16.06,16.06,0,0,0-3.61-.83,24.74,24.74,0,0,0-3.86.14,3.14,3.14,0,0,0-2.44,1.43c-6.52,9.46-10.62,15.47-21.78,19.92s-23.56,6.54-36.62,6.59a157.19,157.19,0,0,1-33.16-3.89,62.24,62.24,0,0,1-24.63-11.28c-1.54-1.17-1.9-2.18-1.9-4.33-.06-23.31-.21-47.2.07-70.47,0-4.06,1.91-5.29,5.31-5.66,6.11-.65,14.62-.06,20.25-.16,7.81-.14,15.27.22,22.11.4s14.55.92,20.06,1.39a40.54,40.54,0,0,1,12.63,2.71c3.05,1.2,2.62,2,4.09,3.92s1.57,3.45,2.9,5.38c.88,1.29,1.62,2.72,2.74,4.1a19.17,19.17,0,0,0,4.32,3.83c.17.1.43.24.63.33a12.12,12.12,0,0,0,6,.73c1.86-.27,2.83-.61,3.63-2.34a224.34,224.34,0,0,1,4.4-22.25c.71-3,1.37-5.91,2-8.93s1.51-5.83,1.9-9.05c.13-1.11-.58-2-2.14-2.26a14.64,14.64,0,0,0-5.46-.47c-1.89.31-4.16.68-6.71,1.34s-6.42,1.6-9.4,2.44c-2.74.77-6.92,1.87-9.55,2.4a41.25,41.25,0,0,1-7.51,1.06c-22.53-.13-44.94.31-67.22-.21-3.87-.08-5.23-1.6-5.32-5.66-.48-21.84-.15-44.27-.12-66.12,0-3.8,2-4.44,4.72-5.78.15-.08.15,0,.43-.06a36.1,36.1,0,0,1,5.52-.29c2.48,0,7.15,0,9.8,0,3.72,0,7.05-.12,10.5-.29,3.12-.15,6-.29,9-.28,2.16,0,6.28-.07,8,0,11.2.43,23.08.92,33.09,4.33s12,8.4,15.85,17.81c.68,1.66,3.37,2.34,5.28,2.2s4.67-.43,5.72-2.23c.63-1.07.64-1.61,1.09-2.44a14.12,14.12,0,0,0,1-2.12c2-5.26,4-10.41,5.67-15.82a114.44,114.44,0,0,0,4.15-16.5c.17-1.07-1-1.94-2.36-2.11a19.55,19.55,0,0,0-5.49-.15c-.23.05-.71.15-.91.21-2.54.8-5.84,1.87-8.38,1.87-55.55.07-110.92,0-166.42,0q0-45.42,0-90.84c2,.17,3.37.28,5.48.29h5.87c2.31,0,4.6-.07,6.93-.15s4.89-.26,7.21-.42,4.49-.38,6.78-.43,4.8-.28,7.05-.14c8.59.54,17.27,1,25.17,4.54s10.74,9.69,13.9,17.61c.67,1.7,2.28,1.95,3.8,2.06s3.67-.46,4.12-1.93a90,90,0,0,0,3.13-15.75,156.54,156.54,0,0,0,.91-16.35c0-1.67.09-4.38,0-6.24a2.09,2.09,0,0,0-1.61-2,7.2,7.2,0,0,0-3.36-.29c-1.23.15-2.71.35-4,.42a26.62,26.62,0,0,0-4.05.71c-2,.45-4.21.93-6.15,1.31a28.21,28.21,0,0,1-5.54.74c-50.61,0-101.08,0-151.74,0a61.56,61.56,0,0,1-6.36-.47c-2.3-.25-5.74-.79-8.28-1.28s-5.8-1.27-8.13-1.85a44.22,44.22,0,0,1-6.1-2.14,6.26,6.26,0,0,0-3.75-.21,3.23,3.23,0,0,0-2.64,1.85,28.14,28.14,0,0,0-1.34,4.72c-.47,1.66-1,3.32-1.6,5-1.53,4-3.24,8.57-4.54,12.55a44.53,44.53,0,0,0-2.17,11.55,9.34,9.34,0,0,0,.18,2.55,7.08,7.08,0,0,0,.57,2.27,3.94,3.94,0,0,0,3.66,2.13,4.5,4.5,0,0,0,4-1.56c4.32-5.22,6.41-9.9,12.54-13.6s10-5.8,18.45-5.9c17-.19,36.46-.11,54.08,0,.15,56.27,0,113.72,0,169.55a73.09,73.09,0,0,1-.56,11.1c-.46,4.22-.9,4.46-2.75,7.18s-3.54,2.91-6.57,4.13-7.93,1.75-11.21,2.45c-1.58.33-3.69.61-3.12,2.61s1.63,2.26,3.93,2.32c14,.42,28.57.45,42.79.34,9-.06,18.21-.24,27.27-.17-.05,25.49,0,51.72-.06,76.94a36,36,0,0,1-1,9.76,15.88,15.88,0,0,1-4.08,8.21c-2.43,2.75-4.92,4.18-8.81,5.6s-10.17,2.07-14.48,2.26c-2.27.1-4.7,0-5.15,2.51s2.91,2.4,4.36,2.48c13.12.7,25.07,1.24,38.38,1.45s27.15.29,40.9.3c7.52,0,14.75,0,22.84-.13s13.86-.14,23.28-.14H1043a5.23,5.23,0,0,0,1-.07c2.62-.44,5.43-.89,8-1.32.3-.05.51-.05.69-.07s.23,0,.33,0a5.85,5.85,0,0,0,4.77-4.42c.41-1.28.72-3.31,1-4.52,1.09-4.84,2.06-9.31,3.26-14s3-9.09,4.63-13.7C1067,470.26,1066.35,469.51,1065.38,469.21Z" transform="translate(-124.46 -77.21)"/><path class="cls-8" d="M1065.38,469.21a16.06,16.06,0,0,0-3.61-.83,24.74,24.74,0,0,0-3.86.14,3.14,3.14,0,0,0-2.44,1.43c-6.52,9.46-10.62,15.47-21.78,19.92s-23.56,6.54-36.62,6.59a157.19,157.19,0,0,1-33.16-3.89,62.24,62.24,0,0,1-24.63-11.28c-1.54-1.17-1.9-2.18-1.9-4.33-.06-23.31-.21-47.2.07-70.47,0-4.06,1.91-5.29,5.31-5.66,6.11-.65,14.62-.06,20.25-.16,7.81-.14,15.27.22,22.11.4s14.55.92,20.06,1.39a40.54,40.54,0,0,1,12.63,2.71c3.05,1.2,2.62,2,4.09,3.92s1.57,3.45,2.9,5.38c.88,1.29,1.62,2.72,2.74,4.1a19.17,19.17,0,0,0,4.32,3.83c.17.1.43.24.63.33a12.12,12.12,0,0,0,6,.73c1.86-.27,2.83-.61,3.63-2.34a224.34,224.34,0,0,1,4.4-22.25c.71-3,1.37-5.91,2-8.93s1.51-5.83,1.9-9.05c.13-1.11-.58-2-2.14-2.26a14.64,14.64,0,0,0-5.46-.47c-1.89.31-4.16.68-6.71,1.34s-6.42,1.6-9.4,2.44c-2.74.77-6.92,1.87-9.55,2.4a41.25,41.25,0,0,1-7.51,1.06c-22.53-.13-44.94.31-67.22-.21-3.87-.08-5.23-1.6-5.32-5.66l-.12-66.12c0-3.8,2-4.44,4.72-5.78.15-.08.15,0,.43-.06a36.1,36.1,0,0,1,5.52-.29c2.48,0,7.15,0,9.8,0,3.72,0,7.05-.12,10.5-.29,3.12-.15,6-.29,9-.28,2.16,0,6.28-.07,8,0,11.2.43,23.08.92,33.09,4.33s12,8.4,15.85,17.81c.68,1.66,3.37,2.34,5.28,2.2s4.67-.43,5.72-2.23c.63-1.07.64-1.61,1.09-2.44a14.12,14.12,0,0,0,1-2.12c2-5.26,4-10.41,5.67-15.82a114.44,114.44,0,0,0,4.15-16.5c.17-1.07-1-1.94-2.36-2.11a19.55,19.55,0,0,0-5.49-.15c-.23.05-.71.15-.91.21-2.54.8-5.84,1.87-8.38,1.87-55.55.07-110.92,0-166.42,0q0-45.42,0-90.84c2,.17,3.37.28,5.48.29h5.87c2.31,0,4.6-.07,6.93-.15s4.89-.26,7.21-.42,4.49-.38,6.78-.43,4.8-.28,7.05-.14c8.59.54,17.27,1,25.17,4.54s10.74,9.69,13.9,17.61c.67,1.7,2.28,1.95,3.8,2.06s3.67-.46,4.12-1.93a90,90,0,0,0,3.13-15.75,156.54,156.54,0,0,0,.91-16.35c0-1.67.09-4.38,0-6.24a2.09,2.09,0,0,0-1.61-2,7.2,7.2,0,0,0-3.36-.29c-1.23.15-2.71.35-4,.42a26.62,26.62,0,0,0-4.05.71c-2,.45-4.21.93-6.15,1.31a28.21,28.21,0,0,1-5.54.74c-50.61,0-101.08,0-151.74,0a61.56,61.56,0,0,1-6.36-.47c-2.3-.25-5.74-.79-8.28-1.28s-5.8-1.27-8.13-1.85a44.22,44.22,0,0,1-6.1-2.14,6.26,6.26,0,0,0-3.75-.21,3.23,3.23,0,0,0-2.64,1.85,28.14,28.14,0,0,0-1.34,4.72c-.47,1.66-1,3.32-1.6,5-1.53,4-3.24,8.57-4.54,12.55a44.53,44.53,0,0,0-2.17,11.55,9.34,9.34,0,0,0,.18,2.55,7.08,7.08,0,0,0,.57,2.27,3.94,3.94,0,0,0,3.66,2.13,4.5,4.5,0,0,0,4-1.56c4.32-5.22,6.41-9.9,12.54-13.6s10-5.8,18.45-5.9c17-.19,36.46-.11,54.08,0,.15,56.27,0,113.72,0,169.55a73.09,73.09,0,0,1-.56,11.1c-.46,4.22-.9,4.46-2.75,7.18s-3.54,2.91-6.57,4.13-7.93,1.75-11.21,2.45c-1.58.33-3.69.61-3.12,2.61s1.63,2.26,3.93,2.32c14,.42,28.57.45,42.79.34,9-.06,18.21-.24,27.27-.17-.05,25.49,0,51.72-.06,76.94a36,36,0,0,1-1,9.76,15.88,15.88,0,0,1-4.08,8.21c-2.43,2.75-4.92,4.18-8.81,5.6s-10.17,2.07-14.48,2.26c-2.27.1-4.7,0-5.15,2.51s2.91,2.4,4.36,2.48c13.12.7,25.07,1.24,38.38,1.45s27.15.29,40.9.3c7.52,0,14.75,0,22.84-.13s13.86-.14,23.28-.14H1043a5.23,5.23,0,0,0,1-.07c2.62-.44,5.43-.89,8-1.32.3-.05.51-.05.69-.07s.23,0,.33,0a5.85,5.85,0,0,0,4.77-4.42c.41-1.28.72-3.31,1-4.52,1.09-4.84,2.06-9.31,3.26-14s3-9.09,4.63-13.7C1067,470.26,1066.35,469.51,1065.38,469.21Z" transform="translate(-124.46 -77.21)"/><path class="cls-8" d="M1065.38,469.21a16.06,16.06,0,0,0-3.61-.83,24.74,24.74,0,0,0-3.86.14,3.14,3.14,0,0,0-2.44,1.43c-6.52,9.46-10.62,15.47-21.78,19.92s-23.56,6.54-36.62,6.59a157.19,157.19,0,0,1-33.16-3.89,62.24,62.24,0,0,1-24.63-11.28c-1.54-1.17-1.9-2.18-1.9-4.33-.06-23.31-.21-47.2.07-70.47,0-4.06,1.91-5.29,5.31-5.66,6.11-.65,14.62-.06,20.25-.16,7.81-.14,15.27.22,22.11.4s14.55.92,20.06,1.39a40.54,40.54,0,0,1,12.63,2.71c3.05,1.2,2.62,2,4.09,3.92s1.57,3.45,2.9,5.38c.88,1.29,1.62,2.72,2.74,4.1a19.17,19.17,0,0,0,4.32,3.83c.17.1.43.24.63.33a12.12,12.12,0,0,0,6,.73c1.86-.27,2.83-.61,3.63-2.34a224.34,224.34,0,0,1,4.4-22.25c.71-3,1.37-5.91,2-8.93s1.51-5.83,1.9-9.05c.13-1.11-.58-2-2.14-2.26a14.64,14.64,0,0,0-5.46-.47c-1.89.31-4.16.68-6.71,1.34s-6.42,1.6-9.4,2.44c-2.74.77-6.92,1.87-9.55,2.4a41.25,41.25,0,0,1-7.51,1.06c-22.53-.13-44.94.31-67.22-.21-3.87-.08-5.23-1.6-5.32-5.66l-.12-66.12c0-3.8,2-4.44,4.72-5.78.15-.08.15,0,.43-.06a36.1,36.1,0,0,1,5.52-.29c2.48,0,7.15,0,9.8,0,3.72,0,7.05-.12,10.5-.29,3.12-.15,6-.29,9-.28,2.16,0,6.28-.07,8,0,11.2.43,23.08.92,33.09,4.33s12,8.4,15.85,17.81c.68,1.66,3.37,2.34,5.28,2.2s4.67-.43,5.72-2.23c.63-1.07.64-1.61,1.09-2.44a14.12,14.12,0,0,0,1-2.12c2-5.26,4-10.41,5.67-15.82a114.44,114.44,0,0,0,4.15-16.5c.17-1.07-1-1.94-2.36-2.11a19.55,19.55,0,0,0-5.49-.15c-.23.05-.71.15-.91.21-2.54.8-5.84,1.87-8.38,1.87-55.55.07-110.92,0-166.42,0q0-45.42,0-90.84c2,.17,3.37.28,5.48.29h5.87c2.31,0,4.6-.07,6.93-.15s4.89-.26,7.21-.42,4.49-.38,6.78-.43,4.8-.28,7.05-.14c8.59.54,17.27,1,25.17,4.54s10.74,9.69,13.9,17.61c.67,1.7,2.28,1.95,3.8,2.06s3.67-.46,4.12-1.93a90,90,0,0,0,3.13-15.75,156.54,156.54,0,0,0,.91-16.35c0-1.67.09-4.38,0-6.24a2.09,2.09,0,0,0-1.61-2,7.2,7.2,0,0,0-3.36-.29c-1.23.15-2.71.35-4,.42a26.62,26.62,0,0,0-4.05.71c-2,.45-4.21.93-6.15,1.31a28.21,28.21,0,0,1-5.54.74c-50.61,0-101.08,0-151.74,0a61.56,61.56,0,0,1-6.36-.47c-2.3-.25-5.74-.79-8.28-1.28s-5.8-1.27-8.13-1.85a44.22,44.22,0,0,1-6.1-2.14,6.26,6.26,0,0,0-3.75-.21,3.23,3.23,0,0,0-2.64,1.85,28.14,28.14,0,0,0-1.34,4.72c-.47,1.66-1,3.32-1.6,5-1.53,4-3.24,8.57-4.54,12.55a44.53,44.53,0,0,0-2.17,11.55,9.34,9.34,0,0,0,.18,2.55,7.08,7.08,0,0,0,.57,2.27,3.94,3.94,0,0,0,3.66,2.13,4.5,4.5,0,0,0,4-1.56c4.32-5.22,6.41-9.9,12.54-13.6s10-5.8,18.45-5.9c17-.19,36.46-.11,54.08,0,.15,56.27,0,113.72,0,169.55a73.09,73.09,0,0,1-.56,11.1c-.46,4.22-.9,4.46-2.75,7.18s-3.54,2.91-6.57,4.13-7.93,1.75-11.21,2.45c-1.58.33-3.69.61-3.12,2.61s1.63,2.26,3.93,2.32c14,.42,28.57.45,42.79.34,9-.06,18.21-.24,27.27-.17-.05,25.49,0,51.72-.06,76.94a36,36,0,0,1-1,9.76,15.88,15.88,0,0,1-4.08,8.21c-2.43,2.75-4.92,4.18-8.81,5.6s-10.17,2.07-14.48,2.26c-2.27.1-4.7,0-5.15,2.51s2.91,2.4,4.36,2.48c13.12.7,25.07,1.24,38.38,1.45s27.15.29,40.9.3c7.52,0,14.75,0,22.84-.13s13.86-.14,23.28-.14H1043a5.23,5.23,0,0,0,1-.07c2.62-.44,5.43-.89,8-1.32.3-.05.51-.05.69-.07s.23,0,.33,0a5.85,5.85,0,0,0,4.77-4.42c.41-1.28.72-3.31,1-4.52,1.09-4.84,2.06-9.31,3.26-14s3-9.09,4.63-13.7C1067,470.26,1066.35,469.51,1065.38,469.21Z" transform="translate(-124.46 -77.21)"/><path class="cls-8" d="M1065.38,469.21a16.06,16.06,0,0,0-3.61-.83,24.74,24.74,0,0,0-3.86.14,3.14,3.14,0,0,0-2.44,1.43c-6.52,9.46-10.62,15.47-21.78,19.92s-23.56,6.54-36.62,6.59a157.19,157.19,0,0,1-33.16-3.89,62.24,62.24,0,0,1-24.63-11.28c-1.54-1.17-1.9-2.18-1.9-4.33-.06-23.31-.21-47.2.07-70.47,0-4.06,1.91-5.29,5.31-5.66,6.11-.65,14.62-.06,20.25-.16,7.81-.14,15.27.22,22.11.4s14.55.92,20.06,1.39a40.54,40.54,0,0,1,12.63,2.71c3.05,1.2,2.62,2,4.09,3.92s1.57,3.45,2.9,5.38c.88,1.29,1.62,2.72,2.74,4.1a19.17,19.17,0,0,0,4.32,3.83c.17.1.43.24.63.33a12.12,12.12,0,0,0,6,.73c1.86-.27,2.83-.61,3.63-2.34a224.34,224.34,0,0,1,4.4-22.25c.71-3,1.37-5.91,2-8.93s1.51-5.83,1.9-9.05c.13-1.11-.58-2-2.14-2.26a14.64,14.64,0,0,0-5.46-.47c-1.89.31-4.16.68-6.71,1.34s-6.42,1.6-9.4,2.44c-2.74.77-6.92,1.87-9.55,2.4a41.25,41.25,0,0,1-7.51,1.06c-22.53-.13-44.94.31-67.22-.21-3.87-.08-5.23-1.6-5.32-5.66l-.12-66.12c0-3.8,2-4.44,4.72-5.78.15-.08.15,0,.43-.06a36.1,36.1,0,0,1,5.52-.29c2.48,0,7.15,0,9.8,0,3.72,0,7.05-.12,10.5-.29,3.12-.15,6-.29,9-.28,2.16,0,6.28-.07,8,0,11.2.43,23.08.92,33.09,4.33s12,8.4,15.85,17.81c.68,1.66,3.37,2.34,5.28,2.2s4.67-.43,5.72-2.23c.63-1.07.64-1.61,1.09-2.44a14.12,14.12,0,0,0,1-2.12c2-5.26,4-10.41,5.67-15.82a114.44,114.44,0,0,0,4.15-16.5c.17-1.07-1-1.94-2.36-2.11a19.55,19.55,0,0,0-5.49-.15c-.23.05-.71.15-.91.21-2.54.8-5.84,1.87-8.38,1.87-55.55.07-110.92,0-166.42,0q0-45.42,0-90.84c2,.17,3.37.28,5.48.29h5.87c2.31,0,4.6-.07,6.93-.15s4.89-.26,7.21-.42,4.49-.38,6.78-.43,4.8-.28,7.05-.14c8.59.54,17.27,1,25.17,4.54s10.74,9.69,13.9,17.61c.67,1.7,2.28,1.95,3.8,2.06s3.67-.46,4.12-1.93a90,90,0,0,0,3.13-15.75,156.54,156.54,0,0,0,.91-16.35c0-1.67.09-4.38,0-6.24a2.09,2.09,0,0,0-1.61-2,7.2,7.2,0,0,0-3.36-.29c-1.23.15-2.71.35-4,.42a26.62,26.62,0,0,0-4.05.71c-2,.45-4.21.93-6.15,1.31a28.21,28.21,0,0,1-5.54.74c-50.61,0-101.08,0-151.74,0a61.56,61.56,0,0,1-6.36-.47c-2.3-.25-5.74-.79-8.28-1.28s-5.8-1.27-8.13-1.85a44.22,44.22,0,0,1-6.1-2.14,6.26,6.26,0,0,0-3.75-.21,3.23,3.23,0,0,0-2.64,1.85,28.14,28.14,0,0,0-1.34,4.72c-.47,1.66-1,3.32-1.6,5-1.53,4-3.24,8.57-4.54,12.55a44.53,44.53,0,0,0-2.17,11.55,9.34,9.34,0,0,0,.18,2.55,7.08,7.08,0,0,0,.57,2.27,3.94,3.94,0,0,0,3.66,2.13,4.5,4.5,0,0,0,4-1.56c4.32-5.22,6.41-9.9,12.54-13.6s10-5.8,18.45-5.9c17-.19,36.46-.11,54.08,0,.15,56.27,0,113.72,0,169.55a73.09,73.09,0,0,1-.56,11.1c-.46,4.22-.9,4.46-2.75,7.18s-3.54,2.91-6.57,4.13-7.93,1.75-11.21,2.45c-1.58.33-3.69.61-3.12,2.61s1.63,2.26,3.93,2.32c14,.42,28.57.45,42.79.34,9-.06,18.21-.24,27.27-.17-.05,25.49,0,51.72-.06,76.94a36,36,0,0,1-1,9.76,15.88,15.88,0,0,1-4.08,8.21c-2.43,2.75-4.92,4.18-8.81,5.6s-10.17,2.07-14.48,2.26c-2.27.1-4.7,0-5.15,2.51s2.91,2.4,4.36,2.48c13.12.7,25.07,1.24,38.38,1.45s27.15.29,40.9.3c7.52,0,14.75,0,22.84-.13s13.86-.14,23.28-.14H1043a5.23,5.23,0,0,0,1-.07c2.62-.44,5.43-.89,8-1.32.3-.05.51-.05.69-.07s.23,0,.33,0a5.85,5.85,0,0,0,4.77-4.42c.41-1.28.72-3.31,1-4.52,1.09-4.84,2.06-9.31,3.26-14s3-9.09,4.63-13.7C1067,470.26,1066.35,469.51,1065.38,469.21Z" transform="translate(-124.46 -77.21)"/><path class="cls-8" d="M1065.38,469.21a16.06,16.06,0,0,0-3.61-.83,24.74,24.74,0,0,0-3.86.14,3.14,3.14,0,0,0-2.44,1.43c-6.52,9.46-10.62,15.47-21.78,19.92s-23.56,6.54-36.62,6.59a157.19,157.19,0,0,1-33.16-3.89,62.24,62.24,0,0,1-24.63-11.28c-1.54-1.17-1.9-2.18-1.9-4.33-.06-23.31-.21-47.2.07-70.47,0-4.06,1.91-5.29,5.31-5.66,6.11-.65,14.62-.06,20.25-.16,7.81-.14,15.27.22,22.11.4s14.55.92,20.06,1.39a40.54,40.54,0,0,1,12.63,2.71c3.05,1.2,2.62,2,4.09,3.92s1.57,3.45,2.9,5.38c.88,1.29,1.62,2.72,2.74,4.1a19.17,19.17,0,0,0,4.32,3.83c.17.1.43.24.63.33a12.12,12.12,0,0,0,6,.73c1.86-.27,2.83-.61,3.63-2.34a224.34,224.34,0,0,1,4.4-22.25c.71-3,1.37-5.91,2-8.93s1.51-5.83,1.9-9.05c.13-1.11-.58-2-2.14-2.26a14.64,14.64,0,0,0-5.46-.47c-1.89.31-4.16.68-6.71,1.34s-6.42,1.6-9.4,2.44c-2.74.77-6.92,1.87-9.55,2.4a41.25,41.25,0,0,1-7.51,1.06c-22.53-.13-44.94.31-67.22-.21-3.87-.08-5.23-1.6-5.32-5.66l-.12-66.12c0-3.8,2-4.44,4.72-5.78.15-.08.15,0,.43-.06a36.1,36.1,0,0,1,5.52-.29c2.48,0,7.15,0,9.8,0,3.72,0,7.05-.12,10.5-.29,3.12-.15,6-.29,9-.28,2.16,0,6.28-.07,8,0,11.2.43,23.08.92,33.09,4.33s12,8.4,15.85,17.81c.68,1.66,3.37,2.34,5.28,2.2s4.67-.43,5.72-2.23c.63-1.07.64-1.61,1.09-2.44a14.12,14.12,0,0,0,1-2.12c2-5.26,4-10.41,5.67-15.82a114.44,114.44,0,0,0,4.15-16.5c.17-1.07-1-1.94-2.36-2.11a19.55,19.55,0,0,0-5.49-.15c-.23.05-.71.15-.91.21-2.54.8-5.84,1.87-8.38,1.87-55.55.07-110.92,0-166.42,0q0-45.42,0-90.84c2,.17,3.37.28,5.48.29h5.87c2.31,0,4.6-.07,6.93-.15s4.89-.26,7.21-.42,4.49-.38,6.78-.43,4.8-.28,7.05-.14c8.59.54,17.27,1,25.17,4.54s10.74,9.69,13.9,17.61c.67,1.7,2.28,1.95,3.8,2.06s3.67-.46,4.12-1.93a90,90,0,0,0,3.13-15.75,156.54,156.54,0,0,0,.91-16.35c0-1.67.09-4.38,0-6.24a2.09,2.09,0,0,0-1.61-2,7.2,7.2,0,0,0-3.36-.29c-1.23.15-2.71.35-4,.42a26.62,26.62,0,0,0-4.05.71c-2,.45-4.21.93-6.15,1.31a28.21,28.21,0,0,1-5.54.74c-50.61,0-101.08,0-151.74,0a61.56,61.56,0,0,1-6.36-.47c-2.3-.25-5.74-.79-8.28-1.28s-5.8-1.27-8.13-1.85a44.22,44.22,0,0,1-6.1-2.14,6.26,6.26,0,0,0-3.75-.21,3.23,3.23,0,0,0-2.64,1.85,28.14,28.14,0,0,0-1.34,4.72c-.47,1.66-1,3.32-1.6,5-1.53,4-3.24,8.57-4.54,12.55a44.53,44.53,0,0,0-2.17,11.55,9.34,9.34,0,0,0,.18,2.55,7.08,7.08,0,0,0,.57,2.27,3.94,3.94,0,0,0,3.66,2.13,4.5,4.5,0,0,0,4-1.56c4.32-5.22,6.41-9.9,12.54-13.6s10-5.8,18.45-5.9c17-.19,36.46-.11,54.08,0,.15,56.27,0,113.72,0,169.55a73.09,73.09,0,0,1-.56,11.1c-.46,4.22-.9,4.46-2.75,7.18s-3.54,2.91-6.57,4.13-7.93,1.75-11.21,2.45c-1.58.33-3.69.61-3.12,2.61s1.63,2.26,3.93,2.32c14,.42,28.57.45,42.79.34,9-.06,18.21-.24,27.27-.17-.05,25.49,0,51.72-.06,76.94a36,36,0,0,1-1,9.76,15.88,15.88,0,0,1-4.08,8.21c-2.43,2.75-4.92,4.18-8.81,5.6s-10.17,2.07-14.48,2.26c-2.27.1-4.7,0-5.15,2.51s2.91,2.4,4.36,2.48c13.12.7,25.07,1.24,38.38,1.45s27.15.29,40.9.3c7.52,0,14.75,0,22.84-.13s13.86-.14,23.28-.14H1043a5.23,5.23,0,0,0,1-.07c2.62-.44,5.43-.89,8-1.32.3-.05.51-.05.69-.07s.23,0,.33,0a5.85,5.85,0,0,0,4.77-4.42c.41-1.28.72-3.31,1-4.52,1.09-4.84,2.06-9.31,3.26-14s3-9.09,4.63-13.7C1067,470.26,1066.35,469.51,1065.38,469.21Z" transform="translate(-124.46 -77.21)"/><path class="cls-9" d="M911.12,99.11c-127.83.52-250.25,92.28-249.7,238.18S781.88,575.73,912,575.26s250.77-90.77,250.42-238.65S1044,98.57,911.12,99.11Zm155.56,372c-1.68,4.61-3.42,9-4.63,13.7s-2.17,9.18-3.26,14c-.27,1.21-.58,3.24-1,4.52a5.85,5.85,0,0,1-4.77,4.42c-.1,0-.14,0-.33,0s-.39,0-.69.07c-2.62.43-5.43.88-8,1.32a5.23,5.23,0,0,1-1,.07H981.6c-9.42,0-15.19.06-23.28.14s-15.32.14-22.84.13c-13.75,0-27.59-.09-40.9-.3s-25.26-.75-38.38-1.45c-1.45-.08-4.81,0-4.36-2.48s2.88-2.41,5.15-2.51c4.31-.19,10.59-.85,14.48-2.26s6.38-2.85,8.81-5.6a15.88,15.88,0,0,0,4.08-8.21,36,36,0,0,0,1-9.76c.11-25.22,0-51.45.06-76.94-9.06-.07-18.25.11-27.27.17-14.22.11-28.8.08-42.79-.34-2.3-.06-3.37-.32-3.93-2.32s1.54-2.28,3.12-2.61c3.28-.7,8.18-1.24,11.21-2.45s4.72-1.41,6.57-4.13,2.29-3,2.75-7.18a73.09,73.09,0,0,0,.56-11.1c0-55.83.11-113.28,0-169.55-17.62-.14-37.09-.22-54.08,0-8.48.1-12.33,2.19-18.45,5.9s-8.22,8.38-12.54,13.6a4.5,4.5,0,0,1-4,1.56,3.94,3.94,0,0,1-3.66-2.13,7.08,7.08,0,0,1-.57-2.27,9.34,9.34,0,0,1-.18-2.55A44.53,44.53,0,0,1,744.35,203c1.3-4,3-8.54,4.54-12.55.63-1.65,1.13-3.31,1.6-5a28.14,28.14,0,0,1,1.34-4.72,3.23,3.23,0,0,1,2.64-1.85,6.26,6.26,0,0,1,3.75.21,44.22,44.22,0,0,0,6.1,2.14c2.33.58,5.6,1.36,8.13,1.85s6,1,8.28,1.28a61.56,61.56,0,0,0,6.36.47c50.66,0,101.13,0,151.74,0a28.21,28.21,0,0,0,5.54-.74c1.94-.38,4.14-.86,6.15-1.31a26.62,26.62,0,0,1,4.05-.71c1.32-.07,2.8-.27,4-.42A7.2,7.2,0,0,1,962,182a2.09,2.09,0,0,1,1.61,2c.12,1.86.06,4.57,0,6.24a156.54,156.54,0,0,1-.91,16.35,90,90,0,0,1-3.13,15.75c-.45,1.47-2.61,2.05-4.12,1.93s-3.13-.36-3.8-2.06c-3.16-7.92-6-14.07-13.9-17.61s-16.58-4-25.17-4.54c-2.25-.14-4.76.08-7.05.14s-4.46.26-6.78.43-4.87.35-7.21.42-4.62.15-6.93.15h-5.87c-2.11,0-3.52-.12-5.48-.29q0,45.42,0,90.84c55.5,0,110.87.06,166.42,0,2.54,0,5.84-1.07,8.38-1.87.2-.06.68-.16.91-.21a19.55,19.55,0,0,1,5.49.15c1.38.17,2.53,1,2.36,2.11a114.44,114.44,0,0,1-4.15,16.5c-1.7,5.41-3.69,10.56-5.67,15.82a14.12,14.12,0,0,1-1,2.12c-.45.83-.46,1.37-1.09,2.44-1,1.8-3.81,2.09-5.72,2.23s-4.6-.54-5.28-2.2C1030,319.43,1028,314.44,1018,311s-21.89-3.9-33.09-4.33c-1.75-.06-5.87,0-8,0-3.06,0-5.89.13-9,.28-3.45.17-6.78.28-10.5.29-2.65,0-7.32,0-9.8,0a36.1,36.1,0,0,0-5.52.29c-.28,0-.28,0-.43.06-2.73,1.34-4.72,2-4.72,5.78l.12,66.12c.09,4.06,1.45,5.58,5.32,5.66,22.28.52,44.69.08,67.22.21a41.25,41.25,0,0,0,7.51-1.06c2.63-.53,6.81-1.63,9.55-2.4,3-.84,6.86-1.78,9.4-2.44s4.82-1,6.71-1.34a14.64,14.64,0,0,1,5.46.47c1.56.27,2.27,1.15,2.14,2.26-.39,3.22-1.29,6-1.9,9.05s-1.27,6-2,8.93a224.34,224.34,0,0,0-4.4,22.25c-.8,1.73-1.77,2.07-3.63,2.34a12.12,12.12,0,0,1-6-.73c-.2-.09-.46-.23-.63-.33a19.17,19.17,0,0,1-4.32-3.83c-1.12-1.38-1.86-2.81-2.74-4.1-1.33-1.93-1.42-3.48-2.9-5.38s-1-2.72-4.09-3.92a40.54,40.54,0,0,0-12.63-2.71c-5.51-.47-13.22-1.21-20.06-1.39s-14.3-.54-22.11-.4c-5.63.1-14.14-.49-20.25.16-3.4.37-5.26,1.6-5.31,5.66-.28,23.27-.13,47.16-.07,70.47,0,2.15.36,3.16,1.9,4.33a62.24,62.24,0,0,0,24.63,11.28,157.19,157.19,0,0,0,33.16,3.89c13.06,0,25.47-2.13,36.62-6.59S1049,479.41,1055.47,470a3.14,3.14,0,0,1,2.44-1.43,24.74,24.74,0,0,1,3.86-.14,16.06,16.06,0,0,1,3.61.83C1066.35,469.51,1067,470.26,1066.68,471.06Z" transform="translate(-124.46 -77.21)"/><path d="M619.56,808.37a50.44,50.44,0,0,1-.83,6,1.05,1.05,0,0,1-1.17.79,1,1,0,0,1-1.07-.79c-.58-3.45-1.84-5.74-3.75-6.86a13.54,13.54,0,0,0-7-1.69q-1.07,0-2,.06c-.58,0-1.2.09-1.85.17s-1.25.13-2,.17-1.38,0-1.9,0H596.4a8.41,8.41,0,0,1-1.46-.11v63.88c0,.22,0,.76.15,1.63s.19,1.74.29,2.64.21,1.72.34,2.47A5.26,5.26,0,0,0,596,878a3.85,3.85,0,0,0,2,1.35c.65.15,1.27.26,1.86.34a16.24,16.24,0,0,1,2.34.33,2.14,2.14,0,0,1,1.46,1.35.87.87,0,0,1,0,1,1.15,1.15,0,0,1-1,.39q-5.94,0-11.85.11T579,882.76c-.66-.07-1-.37-1.08-.9s.23-.86.88-1a18.94,18.94,0,0,0,3.22-1,3.64,3.64,0,0,0,1.75-1.52,6.39,6.39,0,0,0,.74-2.59c.09-1,.14-2.47.14-4.27V806H569.49a6.6,6.6,0,0,0-5,2.3,16.76,16.76,0,0,0-3.31,5.23,1.16,1.16,0,0,1-2.15-.22c-.06-.3-.11-.59-.15-.85a8.65,8.65,0,0,1,0-.95,19.09,19.09,0,0,1,.58-4.45q.59-2.41,1.27-4.89a17.78,17.78,0,0,0,.44-1.91c.09-.6.21-1.2.34-1.8a1.09,1.09,0,0,1,.73-.73,1.38,1.38,0,0,1,1,.06,6.36,6.36,0,0,0,1.66.84c.72.26,1.48.51,2.29.73a21.14,21.14,0,0,0,2.34.51,12.62,12.62,0,0,0,1.71.16H613a5.37,5.37,0,0,0,1.51-.28l1.71-.5a3.41,3.41,0,0,1,1.12-.28,9.55,9.55,0,0,0,1.12-.17,1.3,1.3,0,0,1,.93.11.81.81,0,0,1,.44.79v2.47C619.81,804.23,619.72,806.31,619.56,808.37Z" transform="translate(-124.46 -77.21)"/><path d="M687.39,876.58q-1.86-.12-3.66-.06c-1.2,0-2.39.06-3.56.06H675.3q-1.66,0-4.2-.12a8.7,8.7,0,0,1-3.9-.89l1.08-1.8a2.77,2.77,0,0,0,1.07.45,1.58,1.58,0,0,0,1.31-.73,6.19,6.19,0,0,0,.88-1.86,13.75,13.75,0,0,0,.49-2.31,16.64,16.64,0,0,0,.15-2.08V844.86h-32V867q0,4.28,1.27,5.85t5,1.35l.1,2c-1.69.08-3.33.13-4.93.17s-3.2.05-4.82.05-3.35,0-5-.05-3.28-.09-5-.17a.93.93,0,0,1-1.07-.9,1,1,0,0,1,.87-1.12c1-.23,1.87-.43,2.49-.62a2.52,2.52,0,0,0,1.41-1,4.49,4.49,0,0,0,.64-2,30.07,30.07,0,0,0,.14-3.38V821.59c0-1.73-.35-2.78-1.07-3.15a5.93,5.93,0,0,0-2.14-.68,11.68,11.68,0,0,1-1.81-.33A2.12,2.12,0,0,1,625,816.3a.84.84,0,0,1-.1-1,1.17,1.17,0,0,1,1.07-.45q4.68,0,9.46.06c3.18,0,6.34.2,9.46.5.65.08,1,.41.93,1a.89.89,0,0,1-1,.9,6.59,6.59,0,0,0-3.12,1.07,3.43,3.43,0,0,0-1.46,3.09v18.67h32V821.59a5.45,5.45,0,0,0-.35-2.14,3.32,3.32,0,0,0-.87-1.24,2.54,2.54,0,0,0-1.17-.56,7.57,7.57,0,0,0-1.22-.11c-.78-.15-1.45-.26-2-.34s-.9-.52-1-1.35.23-1.12,1.08-1.12c3.18,0,6.37,0,9.55.11s6.34.22,9.46.45c.65.07,1,.37,1,.9s-.28.86-.93,1a13.36,13.36,0,0,0-3.27,1c-.94.45-1.41,1.54-1.41,3.26V867a13.74,13.74,0,0,0,.1,1.4c.06.64.16,1.32.29,2s.28,1.37.44,2,.34.93.54,1a9.86,9.86,0,0,0,1,.17,9.15,9.15,0,0,0,1,0,10.34,10.34,0,0,1,1.81.17,3.62,3.62,0,0,1,1.8,1Z" transform="translate(-124.46 -77.21)"/><path d="M728,875.68l-.78.45a7.39,7.39,0,0,1-2.25.22c-1.1,0-2.29,0-3.55-.05l-3.61-.12-2.39,0c-1,0-2.08,0-3.12,0s-2.08.06-3.12.06q-3.51,0-7,.06c-2.34,0-4.64,0-6.92-.17a.89.89,0,0,1-.83-1.07q0-1,.93-1c1.82-.07,3-.73,3.61-2a11.66,11.66,0,0,0,.87-4.9v-46.1a2.84,2.84,0,0,0-.92-2.53,5.79,5.79,0,0,0-2-.85l-1.61-.45a5.09,5.09,0,0,1-1.61-.78c-.52-.3-.68-.68-.49-1.13a1.15,1.15,0,0,1,1.17-.67c.59,0,1.35,0,2.29,0s2,.06,3.17.06q2.84.1,6.15.17c2.21,0,4.45,0,6.73,0q4.88,0,8.87-.22a19.34,19.34,0,0,0,5.37-.79,1.28,1.28,0,0,1,1.17.11.87.87,0,0,1,.39.9,34.61,34.61,0,0,1-.59,3.94l-.78,3.6a13.41,13.41,0,0,0-.29,1.46,13,13,0,0,1-.29,1.35,1.06,1.06,0,0,1-1.17.79.94.94,0,0,1-1.08-.9,6.36,6.36,0,0,0-.78-3,4.86,4.86,0,0,0-1.75-1.74,7.27,7.27,0,0,0-2.44-.84,16.77,16.77,0,0,0-2.73-.23c-.52,0-1,0-1.51.06s-1,0-1.52,0-.94,0-1.46.06-1,.06-1.56.06h-1.75v21.47h11.7a3.07,3.07,0,0,0,1.27-.39,17.84,17.84,0,0,1,1.65-.73h-.09a5,5,0,0,0,1.41-1.24,3.15,3.15,0,0,1,1.22-1A1.07,1.07,0,0,1,727,838a1,1,0,0,1,.34,1c-.13,1-.24,2.13-.34,3.48s-.21,2.51-.34,3.49l-.39,2.7c-.13.9-.26,1.87-.39,2.92a1,1,0,0,1-.68.79,1,1,0,0,1-1.08-.23c-.78-.52-1.15-.88-1.12-1.07a2.35,2.35,0,0,0,0-.84c-.19-.67-.4-1.31-.63-1.91a3,3,0,0,0-.63-1.13,4.42,4.42,0,0,0-2-.73,26.69,26.69,0,0,0-3.27-.39c-1.2-.07-2.39-.11-3.56-.11h-4.19v21.81a9,9,0,0,0,4.38,3.6,14.59,14.59,0,0,0,5.37,1.13,10.14,10.14,0,0,0,5.75-1.75,8.66,8.66,0,0,0,3.51-5.68.81.81,0,0,1,.49-.5,1.42,1.42,0,0,1,.78-.11,1.46,1.46,0,0,1,.73.33.58.58,0,0,1,.25.62Z" transform="translate(-124.46 -77.21)"/><path d="M801.15,873.26c-.23,1.76-.44,3.54-.64,5.34l-.29,2.7a.92.92,0,0,1-1,.79l-1.76.56H785.1c-1.49,0-3,0-4.48.06s-3,0-4.49,0c-2.73,0-5.43,0-8.09-.11a74.43,74.43,0,0,1-7.51-.56q-1,0-.93-1a.91.91,0,0,1,1-1,5.8,5.8,0,0,0,3-.9,5,5,0,0,0,1.71-2.14,10.76,10.76,0,0,0,.78-3.09,32.92,32.92,0,0,0,.19-3.66V807.75a7.69,7.69,0,0,0-.29-2.36,3.15,3.15,0,0,0-.83-1.4,3.32,3.32,0,0,0-1.17-.73l-1.32-.45a9.59,9.59,0,0,1-2-.68,9.19,9.19,0,0,1-2-1.24c-.52-.29-.69-.67-.49-1.12a1.06,1.06,0,0,1,1.07-.67h37.45a3.81,3.81,0,0,0,1.76-.79,1.52,1.52,0,0,1,1.21.05.74.74,0,0,1,.44.85q-.29,3.15-.83,6.3c-.35,2.09-.73,4.12-1.12,6.07-.06.3-.13.56-.19.79a8,8,0,0,0-.2.9,1.06,1.06,0,0,1-1.17.89.93.93,0,0,1-1.07-.89q-.39-5.17-3-6.81a12.24,12.24,0,0,0-6.59-1.63h-1.66a14.68,14.68,0,0,0-1.75.11,16.75,16.75,0,0,1-2.05.12h-2a2.8,2.8,0,0,0-1,.11,1.83,1.83,0,0,1-1-.11v30h14.33a4.39,4.39,0,0,0,1.46-.39,14.64,14.64,0,0,0,1.95-1c.72-.37,1.35-.69,1.91-1a6.89,6.89,0,0,1,1.31-.51,1.39,1.39,0,0,1,1.08.23.85.85,0,0,1,.39.89c-.14,1.13-.27,2.27-.39,3.43s-.27,2.31-.39,3.43c-.39,2.78-.69,5.63-.88,8.55a.89.89,0,0,1-.69.9,1.17,1.17,0,0,1-1.26-.34,5.22,5.22,0,0,1-.93-1.57c-.23-.6-.41-1.13-.54-1.58-.19-.67-.37-1.35-.53-2a2.9,2.9,0,0,0-.73-1.46,4.55,4.55,0,0,0-2.44-1.07,31.17,31.17,0,0,0-4.05-.56c-1.46-.12-2.91-.17-4.34-.17h-5.17v30.36a10.38,10.38,0,0,0,5.22,5,16.65,16.65,0,0,0,6.68,1.51,11,11,0,0,0,7.27-2.58,13.29,13.29,0,0,0,4.14-7.65.67.67,0,0,1,.49-.56,1.88,1.88,0,0,1,.78-.06,1.48,1.48,0,0,1,.73.34.68.68,0,0,1,.24.73Q801.48,870.63,801.15,873.26Z" transform="translate(-124.46 -77.21)"/><path d="M862.83,876.58h-4q-2,0-3.9-.12c-1.37-.07-2.72-.12-4-.16s-2.65-.06-4-.06a1.07,1.07,0,0,1-1.12-.62,1,1,0,0,1,.44-1.18,1.64,1.64,0,0,0,.39-1.12,6.49,6.49,0,0,0-.68-1.75c-.46-.93-1.06-2.08-1.81-3.43s-1.59-2.85-2.53-4.49-1.89-3.27-2.83-4.84-1.84-3.07-2.68-4.5-1.53-2.58-2.05-3.48c-.33.6-.68,1.21-1.07,1.85s-.85,1.37-1.37,2.19q-1.36,2.25-2.92,4.9c-1,1.76-2,3.48-3,5.17a53.16,53.16,0,0,0-2.39,4.78,19.91,19.91,0,0,0-1.27,3.71,1.46,1.46,0,0,0,1,.45,3.49,3.49,0,0,1,1.76.45,1,1,0,0,1-.3,1.91c-2.4.15-4.81.24-7.21.28s-4.78.06-7.12.06h-2.34a.91.91,0,0,1-1-1,.93.93,0,0,1,.93-1.07,7.83,7.83,0,0,0,4.68-2.08,29.56,29.56,0,0,0,4.58-5,65.63,65.63,0,0,0,4.34-6.57q2.1-3.6,4-7c1-1.72,1.85-3.29,2.63-4.72a41.32,41.32,0,0,1,2.54-4q-1.17-1.91-2.83-4.83c-1.11-2-2-3.56-2.63-4.84-1-1.95-2.13-3.93-3.27-6a50.92,50.92,0,0,0-3.61-5.57,23.52,23.52,0,0,0-4.09-4.27,10.53,10.53,0,0,0-4.73-2.19c-.65-.15-1-.45-1-.9a1,1,0,0,1,.88-1,18.28,18.28,0,0,1,4.14-.68c1.47-.07,2.91-.11,4.34-.11h3.61c1.17,0,2.36,0,3.56.06s2.42,0,3.66-.06a.92.92,0,0,1,1,.84.83.83,0,0,1-.63,1.07,8.5,8.5,0,0,0-1.76,1,2.12,2.12,0,0,0-.87,1.85c0,1.05.61,2.59,1.85,4.61l3.9,6.41c.78,1.28,1.53,2.48,2.24,3.6s1.37,2.21,1.95,3.26a29.61,29.61,0,0,1,1.9-3l2.49-3.49c.78-1,1.56-2.12,2.34-3.2s1.48-2.12,2.1-3.1a27.85,27.85,0,0,0,1.51-2.64,4.64,4.64,0,0,0,.59-1.86,2.18,2.18,0,0,0-1.22-2,8.81,8.81,0,0,0-2.2-.9c-.65-.15-.94-.49-.88-1s.43-.83,1.08-.9c1.36-.15,2.73-.26,4.09-.34s2.73-.11,4.1-.11,2.86,0,4.29.11a18.3,18.3,0,0,1,4.1.68c.65.15.94.49.87,1s-.42.82-1.07.9a7.84,7.84,0,0,0-4.14,2,28.83,28.83,0,0,0-4.15,4.33,61,61,0,0,0-4,5.73c-1.3,2.1-2.53,4.13-3.7,6.07q-1.36,2.37-2.49,4.11c-.75,1.16-1.48,2.23-2.19,3.2,1,1.5,2,3.17,3.07,5s2.06,3.69,3,5.56q1.75,3.38,3.76,6.81a71.1,71.1,0,0,0,4.14,6.35,34,34,0,0,0,4.49,5.06,11.64,11.64,0,0,0,5,2.81Z" transform="translate(-124.46 -77.21)"/><path d="M907.2,837.5a21,21,0,0,1-3.9,6.35,18.43,18.43,0,0,1-5.71,4.28,15.37,15.37,0,0,1-6.77,1.57,12.88,12.88,0,0,1-2.44-.22l-2.24-.45c-.66-.15-.95-.51-.88-1.07s.42-.85,1.07-.85h1.85a13.17,13.17,0,0,0,4.93-.9,11.62,11.62,0,0,0,4-2.58,12,12,0,0,0,2.68-4.16,15.58,15.58,0,0,0,1-5.74,18.57,18.57,0,0,0-.87-5.73,15.68,15.68,0,0,0-2.44-4.73,12.36,12.36,0,0,0-3.76-3.26,9.68,9.68,0,0,0-4.82-1.23,11.36,11.36,0,0,0-2.59.28,16.87,16.87,0,0,0-2.39.73V867a10.19,10.19,0,0,0,.15,1.29c.1.64.23,1.3.39,2s.31,1.31.44,1.91a3,3,0,0,0,.39,1.13,3.68,3.68,0,0,0,1.27.28,8,8,0,0,1,1.26.17l2.1.39a1.7,1.7,0,0,1,1.32,1.07,1,1,0,0,1,0,1,1.08,1.08,0,0,1-1,.45q-5,0-9.9-.11t-9.9-.34q-1,0-1-.9a1,1,0,0,1,.93-1.12c1-.23,1.86-.43,2.48-.62a2.58,2.58,0,0,0,1.42-1,4.62,4.62,0,0,0,.63-2,29.66,29.66,0,0,0,.15-3.38v-46c0-1.57-.34-2.53-1-2.87a6.19,6.19,0,0,0-2.09-.62,13.34,13.34,0,0,1-1.86-.33,2.13,2.13,0,0,1-1.36-1.13.86.86,0,0,1-.1-1,1.18,1.18,0,0,1,1.07-.45h7.9c.72,0,1.38,0,2,.06s1.29.05,2,.05h3c.64,0,1.26,0,1.85-.05s1.23-.06,2-.06a58.44,58.44,0,0,1,7.22.45,18.48,18.48,0,0,1,6.53,2,12.37,12.37,0,0,1,4.73,4.5,15.18,15.18,0,0,1,1.8,8A20.43,20.43,0,0,1,907.2,837.5Z" transform="translate(-124.46 -77.21)"/><path d="M947.77,875.68l-.78.45a7.36,7.36,0,0,1-2.24.22c-1.11,0-2.3,0-3.56-.05l-3.61-.12-2.39,0c-1,0-2.08,0-3.12,0s-2.08.06-3.12.06q-3.51,0-7,.06c-2.35,0-4.65,0-6.93-.17a.89.89,0,0,1-.83-1.07q0-1,.93-1c1.82-.07,3-.73,3.61-2a11.66,11.66,0,0,0,.87-4.9v-46.1a2.84,2.84,0,0,0-.92-2.53,5.79,5.79,0,0,0-2-.85l-1.61-.45a5.09,5.09,0,0,1-1.61-.78c-.52-.3-.68-.68-.49-1.13a1.15,1.15,0,0,1,1.17-.67c.59,0,1.35,0,2.3,0s2,.06,3.16.06q2.83.1,6.15.17c2.21,0,4.45,0,6.73,0q4.88,0,8.87-.22a19.34,19.34,0,0,0,5.37-.79,1.28,1.28,0,0,1,1.17.11.87.87,0,0,1,.39.9,32.51,32.51,0,0,1-.59,3.94l-.78,3.6a13.41,13.41,0,0,0-.29,1.46,10.84,10.84,0,0,1-.29,1.35,1,1,0,0,1-1.17.79.94.94,0,0,1-1.08-.9,6.36,6.36,0,0,0-.78-3,4.86,4.86,0,0,0-1.75-1.74,7.27,7.27,0,0,0-2.44-.84,16.77,16.77,0,0,0-2.73-.23c-.52,0-1,0-1.51.06s-1,0-1.51,0-1,0-1.47.06-1,.06-1.56.06h-1.75v21.47h11.7a3.07,3.07,0,0,0,1.27-.39,16.92,16.92,0,0,1,1.66-.73h-.1a5,5,0,0,0,1.41-1.24,3.15,3.15,0,0,1,1.22-1,1.07,1.07,0,0,1,1.12.17,1,1,0,0,1,.34,1c-.13,1-.24,2.13-.34,3.48s-.21,2.51-.34,3.49l-.39,2.7c-.13.9-.26,1.87-.39,2.92a1,1,0,0,1-.68.79,1,1,0,0,1-1.07-.23c-.78-.52-1.16-.88-1.13-1.07a2.54,2.54,0,0,0,0-.84c-.2-.67-.41-1.31-.64-1.91a3,3,0,0,0-.63-1.13,4.42,4.42,0,0,0-1.95-.73,26.69,26.69,0,0,0-3.27-.39c-1.2-.07-2.39-.11-3.56-.11h-4.19v21.81a8.93,8.93,0,0,0,4.39,3.6,14.5,14.5,0,0,0,5.36,1.13,10.14,10.14,0,0,0,5.75-1.75,8.66,8.66,0,0,0,3.51-5.68.81.81,0,0,1,.49-.5,1.42,1.42,0,0,1,.78-.11,1.46,1.46,0,0,1,.73.33.58.58,0,0,1,.25.62Z" transform="translate(-124.46 -77.21)"/><path d="M1006.77,877.93a14.58,14.58,0,0,1-6.14-1.24,19,19,0,0,1-5-3.26,33.28,33.28,0,0,1-4.19-4.61q-2-2.6-3.8-5.29-1.67-2.47-3.32-4.72a33.38,33.38,0,0,0-3.51-4,7.33,7.33,0,0,0-4.24-2.08,32,32,0,0,0-4.73-.39,5.45,5.45,0,0,1-1-.06,3.29,3.29,0,0,0-1,.06v14.84a10.21,10.21,0,0,0,.15,1.41c.09.63.21,1.31.34,2a17.59,17.59,0,0,0,.44,1.91c.16.56.3.88.43,1a1.45,1.45,0,0,0,.88.22,4.9,4.9,0,0,1,1.17.12c.59.07,1.19.16,1.81.28a3.54,3.54,0,0,1,1.7.84c.52.3.69.68.49,1.13a1.16,1.16,0,0,1-1.17.67q-5,0-9.9-.06c-3.28,0-6.58-.17-9.9-.39a.93.93,0,0,1-.92-1,1,1,0,0,1,.83-1.06,17.33,17.33,0,0,0,2.48-.51,2.66,2.66,0,0,0,1.42-1,4.22,4.22,0,0,0,.63-2,31.15,31.15,0,0,0,.15-3.43V821.7c0-1.8-.34-2.89-1-3.26a5.52,5.52,0,0,0-2.09-.68,10.43,10.43,0,0,1-1.86-.33,2.16,2.16,0,0,1-1.27-1.13.84.84,0,0,1-.09-1,1.17,1.17,0,0,1,1.07-.45h3.71c.78,0,1.56,0,2.34.11,1,.08,2,.11,2.92.11h5c.65,0,1.28,0,1.9,0s1.28-.06,2-.06a66.74,66.74,0,0,1,7.55.45,21.72,21.72,0,0,1,7.17,2,13.64,13.64,0,0,1,5.32,4.61c1.4,2,2.09,4.76,2.09,8.21a16.91,16.91,0,0,1-.82,5.17,27.86,27.86,0,0,1-2.15,5,35.5,35.5,0,0,1-2.93,4.44,43,43,0,0,1-3.26,3.77q1.46,1.68,2.87,3.54t2.88,3.88q2.34,3.25,5,6.63a55,55,0,0,0,5.46,6.08,28.35,28.35,0,0,0,5.75,4.32,9,9,0,0,0,5.85,1.19l.59,1.91A18.1,18.1,0,0,1,1006.77,877.93Zm-21.21-49.54a15.24,15.24,0,0,0-2.44-5,12.7,12.7,0,0,0-3.85-3.43,9.74,9.74,0,0,0-5-1.3,14.82,14.82,0,0,0-4.48.68v27.1c1.1.15,2.26.26,3.46.34s2.36.11,3.46.11a8.36,8.36,0,0,0,7.22-3.37c1.62-2.25,2.44-5.29,2.44-9.11A21.67,21.67,0,0,0,985.56,828.39Z" transform="translate(-124.46 -77.21)"/><path d="M1040.61,876.69a28.53,28.53,0,0,0-3.46,0,26.42,26.42,0,0,1-3.56,0l-3.71-.11c-.52,0-1.17,0-2,.11s-1.61.15-2.49.22a18,18,0,0,1-2.53.06,5,5,0,0,1-1.9-.39c-.59-.23-.75-.69-.49-1.41s.68-1,1.27-.84a.92.92,0,0,0,.83,0,1.27,1.27,0,0,1,.53-.16,1.61,1.61,0,0,0,1.32-.73,5.71,5.71,0,0,0,.83-1.86,19.85,19.85,0,0,0,.44-2.25,17.17,17.17,0,0,0,.14-2V821.59a3.43,3.43,0,0,0-1.61-3.21,8.79,8.79,0,0,0-3.36-1.18q-1-.11-.93-1c0-.56.38-.88,1-1a24.39,24.39,0,0,1,4.68,0c1.56.15,3.08.22,4.58.22a42,42,0,0,0,4.39-.22,21.47,21.47,0,0,1,4.39,0,.91.91,0,0,1,.92.9.92.92,0,0,1-.82,1,12.28,12.28,0,0,0-3.32,1c-.91.45-1.37,1.58-1.37,3.38V867a9,9,0,0,0,.15,1.35c.1.6.21,1.24.34,1.91a15.22,15.22,0,0,0,.49,1.91,7.09,7.09,0,0,0,.49,1.24,5.64,5.64,0,0,0,.87.22,5.4,5.4,0,0,0,1.08.12,9.84,9.84,0,0,1,1.9.16,3.31,3.31,0,0,1,1.61,1Z" transform="translate(-124.46 -77.21)"/><path d="M1081.18,875.68l-.78.45a7.39,7.39,0,0,1-2.25.22c-1.1,0-2.29,0-3.56-.05l-3.6-.12-2.39,0c-1,0-2.08,0-3.12,0s-2.09.06-3.12.06q-3.52,0-7,.06t-6.92-.17a.89.89,0,0,1-.83-1.07q0-1,.93-1c1.82-.07,3-.73,3.61-2a11.66,11.66,0,0,0,.87-4.9v-46.1a2.87,2.87,0,0,0-.92-2.53,5.79,5.79,0,0,0-2-.85l-1.61-.45a5.09,5.09,0,0,1-1.61-.78c-.52-.3-.68-.68-.49-1.13a1.15,1.15,0,0,1,1.17-.67c.59,0,1.35,0,2.29,0s2,.06,3.17.06q2.84.1,6.15.17c2.21,0,4.45,0,6.73,0,3.25,0,6.2-.07,8.87-.22a19.34,19.34,0,0,0,5.37-.79,1.26,1.26,0,0,1,1.16.11.84.84,0,0,1,.39.9,32.59,32.59,0,0,1-.58,3.94l-.78,3.6a13.41,13.41,0,0,0-.29,1.46,10.89,10.89,0,0,1-.3,1.35,1,1,0,0,1-1.17.79.94.94,0,0,1-1.07-.9,6.36,6.36,0,0,0-.78-3,4.86,4.86,0,0,0-1.75-1.74,7.27,7.27,0,0,0-2.44-.84,16.77,16.77,0,0,0-2.73-.23c-.52,0-1,0-1.51.06s-1,0-1.52,0-.94,0-1.46.06-1,.06-1.56.06H1062v21.47h11.7a3.07,3.07,0,0,0,1.27-.39,17.84,17.84,0,0,1,1.65-.73h-.09a5,5,0,0,0,1.41-1.24,3.15,3.15,0,0,1,1.22-1,1.07,1.07,0,0,1,1.12.17,1,1,0,0,1,.34,1c-.13,1-.24,2.13-.34,3.48s-.21,2.51-.34,3.49l-.39,2.7c-.13.9-.26,1.87-.39,2.92a1,1,0,0,1-.68.79,1,1,0,0,1-1.08-.23c-.78-.52-1.15-.88-1.12-1.07a2.61,2.61,0,0,0,0-.84c-.19-.67-.4-1.31-.63-1.91a3,3,0,0,0-.63-1.13,4.42,4.42,0,0,0-2-.73,26.69,26.69,0,0,0-3.27-.39c-1.21-.07-2.39-.11-3.56-.11H1062v21.81a8.91,8.91,0,0,0,4.38,3.6,14.59,14.59,0,0,0,5.37,1.13,10.14,10.14,0,0,0,5.75-1.75A8.66,8.66,0,0,0,1081,865a.81.81,0,0,1,.49-.5,1.42,1.42,0,0,1,.78-.11,1.46,1.46,0,0,1,.73.33.58.58,0,0,1,.25.62Z" transform="translate(-124.46 -77.21)"/><path d="M1152.37,817.09a6.05,6.05,0,0,0-1.46.34h.09a14.05,14.05,0,0,0-2.34.9,1.86,1.86,0,0,0-1.17,1.79v7.09q0,3.38.1,6.86,0,3.25.05,7.14t0,7q0,7.2-.2,14.22t-.78,14.12a.91.91,0,0,1-.68.84,1.45,1.45,0,0,1-1.17-.17,235.25,235.25,0,0,1-20.63-20.18q-9.7-10.74-19.06-21.65h.1l-5.08-5.74c-.06.68-.09,1.35-.09,2v2.13c0,2.85.05,5.67.14,8.44s.21,5.58.34,8.43.23,5.55.3,8.32.09,5.59.09,8.44a13,13,0,0,0,.3,3.09,3.72,3.72,0,0,0,.83,1.74,2.86,2.86,0,0,0,1.17.79,8.12,8.12,0,0,0,1.31.34c.59.15,1.2.28,1.86.39a3.72,3.72,0,0,1,1.85,1c.52.3.68.67.49,1.12a1.16,1.16,0,0,1-1.17.68,32.24,32.24,0,0,0-3.42-.06c-1.17,0-2.31.06-3.41.06h-3.41q-2.25,0-4.44-.12a19.15,19.15,0,0,1-4.24-.67.89.89,0,0,1-.74-1.12,1,1,0,0,1,1-.9h1.17a3.18,3.18,0,0,0,2.83-1,4.68,4.68,0,0,0,1.17-3.43V816.3a2.37,2.37,0,0,1,.49-1.52,8.56,8.56,0,0,1,1-1.07,1.17,1.17,0,0,1,1.37.12q11.2,11.91,22.23,24t21.94,24.46q.11-3.49,0-6.81c-.06-2.21-.13-4.48-.19-6.8q-.2-2.81-.29-6t-.1-6c0-1.2,0-2.36,0-3.49s.05-2.28.05-3.48v-6.86a8.85,8.85,0,0,0-.39-2.87,3.9,3.9,0,0,0-1-1.58,3.07,3.07,0,0,0-1.27-.67c-.45-.11-.91-.21-1.36-.28a6.9,6.9,0,0,1-3-1,.71.71,0,0,1-.39-1,1.08,1.08,0,0,1,1.08-.67l3.51-.11c2.4-.08,4.78-.06,7.12,0s4.68.25,7,.4Z" transform="translate(-124.46 -77.21)"/><path d="M1212.1,866.79a42.73,42.73,0,0,1-1.61,5.18,1.39,1.39,0,0,1-.59.67,102.6,102.6,0,0,1-11.16,3.21,51.89,51.89,0,0,1-11.56,1.4,28.64,28.64,0,0,1-20.33-8.43,30.75,30.75,0,0,1-8.92-22.16,36.12,36.12,0,0,1,3-14.28,38.31,38.31,0,0,1,7.66-11.81,15.92,15.92,0,0,1,4.87-3.37,34.12,34.12,0,0,1,6.15-2.14,48.23,48.23,0,0,1,6.38-1.12,52.61,52.61,0,0,1,5.61-.34,49.5,49.5,0,0,1,5.9.34c1.92.22,3.82.49,5.71.79,1.49.22,2.92.43,4.29.61s2.76.36,4.19.51c.72,0,1.07.3,1.07.9a76.15,76.15,0,0,1-.58,7.76c-.33,2.55-.68,5.06-1.07,7.53a1.06,1.06,0,0,1-1.18.79,1,1,0,0,1-1.07-.79,16.4,16.4,0,0,0-2.34-6.52,16.65,16.65,0,0,0-4.14-4.44,16.22,16.22,0,0,0-5.32-2.53,23,23,0,0,0-6-.79,27.54,27.54,0,0,0-9.36,1.58,21.71,21.71,0,0,0-7.7,4.72,22.7,22.7,0,0,0-5.27,7.82,28,28,0,0,0-2,10.85,32.1,32.1,0,0,0,2.15,11.86,29.9,29.9,0,0,0,5.8,9.45,27.52,27.52,0,0,0,8.48,6.3,23.47,23.47,0,0,0,10.19,2.3,18.07,18.07,0,0,0,10-2.92,20.38,20.38,0,0,0,7.27-8.77l2.24.45A26.73,26.73,0,0,1,1212.1,866.79Z" transform="translate(-124.46 -77.21)"/><path d="M1252.23,875.68l-.78.45a7.36,7.36,0,0,1-2.24.22c-1.11,0-2.29,0-3.56-.05l-3.61-.12-2.39,0c-1,0-2.08,0-3.12,0s-2.08.06-3.12.06q-3.51,0-7,.06t-6.93-.17a.89.89,0,0,1-.83-1.07c0-.64.34-1,.93-1,1.82-.07,3-.73,3.61-2a11.64,11.64,0,0,0,.88-4.9v-46.1a2.84,2.84,0,0,0-.93-2.53,5.79,5.79,0,0,0-2-.85l-1.61-.45a5.09,5.09,0,0,1-1.61-.78c-.52-.3-.68-.68-.49-1.13a1.15,1.15,0,0,1,1.17-.67c.59,0,1.35,0,2.3,0s2,.06,3.17.06q2.82.1,6.14.17c2.21,0,4.45,0,6.73,0q4.88,0,8.87-.22a19.27,19.27,0,0,0,5.37-.79,1.28,1.28,0,0,1,1.17.11.87.87,0,0,1,.39.9,32.51,32.51,0,0,1-.59,3.94l-.78,3.6a13.41,13.41,0,0,0-.29,1.46,10.84,10.84,0,0,1-.29,1.35,1,1,0,0,1-1.17.79,1,1,0,0,1-1.08-.9,6.36,6.36,0,0,0-.78-3,4.86,4.86,0,0,0-1.75-1.74,7.27,7.27,0,0,0-2.44-.84,16.77,16.77,0,0,0-2.73-.23c-.52,0-1,0-1.51.06s-1,0-1.51,0-1,0-1.47.06-1,.06-1.56.06H1233v21.47h11.7a3.07,3.07,0,0,0,1.27-.39,16.92,16.92,0,0,1,1.66-.73h-.1a5,5,0,0,0,1.41-1.24,3.15,3.15,0,0,1,1.22-1,1.07,1.07,0,0,1,1.12.17,1,1,0,0,1,.34,1c-.13,1-.24,2.13-.34,3.48s-.21,2.51-.34,3.49l-.39,2.7c-.13.9-.26,1.87-.39,2.92a1,1,0,0,1-.68.79,1,1,0,0,1-1.07-.23c-.78-.52-1.16-.88-1.12-1.07a2.94,2.94,0,0,0,0-.84c-.2-.67-.41-1.31-.64-1.91a3,3,0,0,0-.63-1.13,4.42,4.42,0,0,0-2-.73,26.69,26.69,0,0,0-3.27-.39c-1.2-.07-2.39-.11-3.56-.11H1233v21.81a8.93,8.93,0,0,0,4.39,3.6,14.5,14.5,0,0,0,5.36,1.13,10.14,10.14,0,0,0,5.75-1.75A8.71,8.71,0,0,0,1252,865a.77.77,0,0,1,.48-.5,1.43,1.43,0,0,1,1.51.22.58.58,0,0,1,.25.62Z" transform="translate(-124.46 -77.21)"/><path class="cls-10" d="M1181.92,336.48c0,150.36-111.18,258.67-269.05,258.67s-271-114.79-271-265.15C641.92,190.69,739,93.94,878.8,80.46c2.22-.21,4.45-.41,6.69-.58C903,79,921,79,938.74,79.83q3.18.24,6.32.55C1085.64,94,1181.92,196.57,1181.92,336.48Z" transform="translate(-124.46 -77.21)"/><polygon points="716.86 573.59 716.86 573.59 716.86 573.59 716.86 573.59"/><polygon points="716.86 573.59 716.86 573.59 716.86 573.59 716.86 573.59"/><path class="cls-11" d="M841.89,672.61C829.7,665.53,815,661,799.73,657.3a271.45,271.45,0,0,0-49.32-7c-29.74-1.53-62,1.34-92.46,10.22a52.58,52.58,0,0,0-12.81-11.29c-1.3-.83-2.64-1.59-4-2.32a375.78,375.78,0,0,1,55.32-13.12,293.67,293.67,0,0,1,57.82-3.36,259.4,259.4,0,0,1,40.49,4.91,198.5,198.5,0,0,1,38.85,12.09c6.07,2.76,7.66,3.37,7.7,3.38h0s-.82-.82-4.64-3.82-11.46-8.23-27.76-14.07c-16.32-5.5-41.8-11.74-79.18-11.85a276,276,0,0,0-30,1.48c-5.34.53-10.87,1.36-16.47,2.34s-11.12,2.11-16.93,3.33c-11.62,2.44-23.89,5.48-36.47,9.35-2.34.7-4.69,1.45-7.05,2.21-1.24-.34-2.49-.66-3.74-1a212.67,212.67,0,0,0-28.7-4.74c-20-1.85-41.44-1.13-64,2s-46.29,8.61-71.09,15.38c-23.33,6.32-47.72,13.71-73.56,20.17-1.64.41-3.27.83-4.93,1.23q-9.54,2.29-19.12,4.11a309.14,309.14,0,0,1-32,4.46c-1.29.11-2.58.2-3.87.28-1.51.11-3,.22-4.52.3a275.18,275.18,0,0,1-58.54-3.11c-9.27-1.53-18.55-3.38-27.35-5.46a50.34,50.34,0,0,1-3.2-5.37,40.05,40.05,0,0,1-4.51-22.76c1.52-15.52,12.24-29.62,24.54-35.8,14.11-7.11,30.47-5.58,42.73-1.25,12.47,4.24,21.28,10.63,26.31,13.74,11.81,7.47,23.28,15,33,19.52s17.58,5.69,21.15,1.52,2.24-12.73-3.48-23.32a93.9,93.9,0,0,0-31.7-33.27A100.92,100.92,0,0,0,298,572.66a88.91,88.91,0,0,0-30.33.72A73.22,73.22,0,0,0,236.16,588c-16.43,13.52-27.79,34.08-28.22,56.78a59,59,0,0,0,4.56,23.63c-4.42-1.36-8.57-2.78-12.34-4.25-15.63-6-24.28-13.67-28.34-17.68-9.24-8.62-14.62-20.55-17.29-29.67-2.87-9.07-2.33-17.59-6.47-21.17-2-1.61-5.27-1.5-9.2,1.47s-8.21,9.05-10.61,17.82a61.91,61.91,0,0,0,.35,31,66.68,66.68,0,0,0,18.45,31.65,77,77,0,0,0,17.12,12.11,109.15,109.15,0,0,0,26.76,9.56,217.75,217.75,0,0,0,31.68,4.33c7,.51,14.16.8,21.44.89,18.87,12.5,39.52,18.24,58.93,20.19a185,185,0,0,0,38-.31,110,110,0,0,0,27.86,12.88c10.65,3.48,32.3,8,58.84,8.23,26.41.4,58.07-3,87.16-11.65a260.22,260.22,0,0,0,30.67-10.93,101.39,101.39,0,0,0,29,12.73c16.53,4.29,38.48,6.5,63-4a62.77,62.77,0,0,0,17.69-12,43.48,43.48,0,0,0,12.48-21.9c2.06-9.12.45-19.26-3.75-27.67-.37-.75-.76-1.49-1.16-2.23,28.47-8.35,58.74-11.13,86.73-9.78a256.2,256.2,0,0,1,46.51,6.42c14.46,3.45,28.28,7.69,38.78,13.75s17.34,14.18,17.82,22.42-6.35,15.56-15.81,20.51-20.81,8.11-32.12,10a173.65,173.65,0,0,1-33.55,2.27c-21.79-.68-41.58-5.15-57.39-11.84-7.88-3.34-14.71-7.25-19.71-11.74s-8-9.52-8.54-14.58a15.9,15.9,0,0,1,4.9-13.57,37.89,37.89,0,0,1,15.09-8.36c11.75-3.54,24.25-3.65,35-3,21.94,1.47,38.67,5.48,50.43,10s18.68,9.68,23,13.53a41.75,41.75,0,0,1,4.83,5,26.51,26.51,0,0,1,2.51,3.28l1.54,2.14s-.28-.54-1.14-2.25a21.29,21.29,0,0,0-2.08-3.46,35.74,35.74,0,0,0-4.35-5.35c-4-4.12-10.63-9.69-22.62-14.8s-29-9.68-51.55-11.67c-11.27-.87-24.55-1.12-38.14,2.67-6.7,1.93-13.22,5.11-18.06,9.57a19.75,19.75,0,0,0-6.64,16.56c.45,6,3.92,12.14,9.53,17.32s13.1,9.64,21.52,13.34c16.84,7.39,38,12.4,61.4,13.34A187,187,0,0,0,807,737.36c12.23-2,24.94-5.18,36.07-11,5.51-2.92,10.67-6.5,14.4-11a21.85,21.85,0,0,0,5.61-15.07C862.64,689.63,854,679.57,841.89,672.61ZM304.41,710.79a127.7,127.7,0,0,1-30.8-7.13q22.38-1.26,44.78-4.47l.72-.11c.28.82.61,1.66,1,2.51a43.12,43.12,0,0,0,6.52,10.11A168.28,168.28,0,0,1,304.41,710.79Zm223.3-61.72q13.44-2,26.23-2.87a251.13,251.13,0,0,1,35.36,0c3.71.36,7.39.75,11,1.21q-4.17,1.45-8.43,2.9l-1,.36c-19.43,6.59-39.82,11.87-60.22,14-7.26.79-14.31,1.25-20.68,1.36-3.84.06-7.43,0-10.67-.2a114.33,114.33,0,0,1-13.75-1.59c-1.66-.29-3-.56-4-.75l-10.93-2.1A527.25,527.25,0,0,1,527.71,649.07ZM447.25,668a19,19,0,0,0,1.48,1.9,28.68,28.68,0,0,0,7.57,5.79,56,56,0,0,0,15,5.58c.93.21,1.87.4,2.84.57a104.43,104.43,0,0,0,25.82.86,187.52,187.52,0,0,0,35.45-6.61c12.33-3.43,24.27-7.29,36.09-11.28-13.26,5.68-27,11.78-41.89,17.43-5.72,2.17-11.56,4.17-17.49,5.93l-.32-.38s.07.13.24.41c-6.33,1.88-12.76,3.5-19.29,4.76a165.32,165.32,0,0,1-38,3.16,147,147,0,0,1-15.07-1.31,113.77,113.77,0,0,1-20.18-4.54l-1.06-.35a111.23,111.23,0,0,1-18.62-8.35C416.3,677,432.06,672.32,447.25,668Zm90,44.35q-2,.71-4.08,1.38a217,217,0,0,1-25.67,6.79,284.81,284.81,0,0,1-78,4.8,200.47,200.47,0,0,1-46.5-8.7l-1.39-.45a135.58,135.58,0,0,1-20.41-8.36c-1-.52-2-1-2.92-1.57a107.68,107.68,0,0,1-16.14-11.06c7.9-1.53,15.76-3.23,23.6-5a54.07,54.07,0,0,0,12.86,9.11c1.54.81,3.61,1.79,6.15,2.83a118.8,118.8,0,0,0,20.86,6.24l2.34.47c14.14,2.8,31.58,3.34,48,1.42,21.76-2.46,41.87-7.8,60.86-14.28l1.38-.49c5.82-2,11.54-4.11,17.16-6.28,17.08-6.57,32.2-13.55,46.6-19.77s28.07-11.78,41.33-16.51l.88-.3,2.08.35A67.36,67.36,0,0,1,640,659a39,39,0,0,1,6.91,5.07c-1.15.4-2.31.79-3.46,1.21-24.64,8.91-46.1,20.54-67.87,30.92A359.85,359.85,0,0,1,537.29,712.31Zm121.52-16.72a33.81,33.81,0,0,1-9.31,17,55.63,55.63,0,0,1-15,10.79,84.91,84.91,0,0,1-31.59,8,99,99,0,0,1-27-2.13,100.72,100.72,0,0,1-25-8.85c11.64-5.2,22.67-10.91,33.3-16.66,21.11-11.35,41.64-23.09,64.91-31.55,1.27-.47,2.55-.91,3.83-1.35C658.1,678.45,660.49,687.47,658.81,695.59Z" transform="translate(-124.46 -77.21)"/><polygon class="cls-12" points="833.95 570.23 833.95 570.23 833.95 570.23 833.95 570.23"/><polygon class="cls-13" points="833.95 570.23 833.95 570.23 833.95 570.23 833.95 570.23"/><path class="cls-14" d="M1208.87,647.33c19.44,6.87,39.82,12.37,60.23,14.62,7.26.83,14.31,1.31,20.67,1.42,3.85.07,7.44,0,10.68-.21a110.39,110.39,0,0,0,13.75-1.65c1.65-.3,3-.58,4-.78l10.92-2.19a510.2,510.2,0,0,0-57.14-12.9c-9-1.42-17.71-2.4-26.24-3a239.59,239.59,0,0,0-35.36,0c-3.7.36-7.39.77-11,1.26,2.77,1,5.58,2,8.43,3Z" transform="translate(-124.46 -77.21)"/><path class="cls-15" d="M1325.57,679.72a101.08,101.08,0,0,1-25.82.9,180.67,180.67,0,0,1-35.45-6.89c-12.34-3.57-24.28-7.59-36.09-11.74,13.26,5.91,27,12.26,41.88,18.15,5.73,2.26,11.56,4.33,17.49,6.17l.33-.39s-.08.13-.24.42a197.6,197.6,0,0,0,19.29,5,159.1,159.1,0,0,0,38,3.29,144.21,144.21,0,0,0,15.07-1.36,110.8,110.8,0,0,0,20.17-4.73l1.07-.37a110.28,110.28,0,0,0,18.62-8.69c-16.5-4.69-32.26-9.59-47.46-14.13a18.14,18.14,0,0,1-1.48,2,28.87,28.87,0,0,1-7.56,6,54.42,54.42,0,0,1-15,5.81C1327.48,679.34,1326.53,679.55,1325.57,679.72Z" transform="translate(-124.46 -77.21)"/><path class="cls-16" d="M1150.66,669.77c-1.26-.49-2.55-.94-3.83-1.4-5.2,7.86-7.6,17.25-5.91,25.71a35.57,35.57,0,0,0,9.31,17.72,55.61,55.61,0,0,0,15,11.24,82.3,82.3,0,0,0,31.58,8.37,95.39,95.39,0,0,0,27-2.22,98.09,98.09,0,0,0,25-9.22c-11.64-5.41-22.67-11.35-33.29-17.34C1194.47,690.8,1173.93,678.58,1150.66,669.77Z" transform="translate(-124.46 -77.21)"/><path class="cls-17" d="M1480.62,697.71c-.29.86-.61,1.73-1,2.62a45.18,45.18,0,0,1-6.53,10.52,162,162,0,0,0,22.22-.94,123.89,123.89,0,0,0,30.79-7.43q-22.38-1.31-44.78-4.65Z" transform="translate(-124.46 -77.21)"/><path class="cls-18" d="M1421.05,697.84c-1.55.85-3.62,1.87-6.16,2.95A116.31,116.31,0,0,1,1394,707.3l-2.34.48c-14.14,2.92-31.57,3.48-48,1.48-21.77-2.56-41.87-8.12-60.86-14.87l-1.39-.5q-8.72-3.15-17.15-6.55c-17.08-6.84-32.21-14.1-46.6-20.59s-28.08-12.26-41.34-17.18l-.88-.32-2.08.36a65.79,65.79,0,0,0-13.64,6.34,39.2,39.2,0,0,0-6.92,5.28c1.16.41,2.32.82,3.47,1.25,24.64,9.29,46.1,21.39,67.86,32.2a353.31,353.31,0,0,0,38.29,16.81c1.36.49,2.72,1,4.09,1.44a212.14,212.14,0,0,0,25.66,7.07,273.73,273.73,0,0,0,78,5,193,193,0,0,0,46.49-9.06c.48-.15.93-.31,1.39-.47a131.07,131.07,0,0,0,20.41-8.7c1-.54,2-1.08,2.92-1.64a106.12,106.12,0,0,0,16.14-11.51c-7.89-1.59-15.76-3.36-23.6-5.25A53.9,53.9,0,0,1,1421.05,697.84Z" transform="translate(-124.46 -77.21)"/><path class="cls-16" d="M1150.66,669.77c-1.26-.49-2.55-.94-3.83-1.4-5.2,7.86-7.6,17.25-5.91,25.71a35.57,35.57,0,0,0,9.31,17.72,55.61,55.61,0,0,0,15,11.24,82.3,82.3,0,0,0,31.58,8.37,95.39,95.39,0,0,0,27-2.22,98.09,98.09,0,0,0,25-9.22c-11.64-5.41-22.67-11.35-33.29-17.34C1194.47,690.8,1173.93,678.58,1150.66,669.77Z" transform="translate(-124.46 -77.21)"/><path class="cls-14" d="M1208.87,647.33c19.44,6.87,39.82,12.37,60.23,14.62,7.26.83,14.31,1.31,20.67,1.42,3.85.07,7.44,0,10.68-.21a110.39,110.39,0,0,0,13.75-1.65c1.65-.3,3-.58,4-.78l10.92-2.19a510.2,510.2,0,0,0-57.14-12.9c-9-1.42-17.71-2.4-26.24-3a239.59,239.59,0,0,0-35.36,0c-3.7.36-7.39.77-11,1.26,2.77,1,5.58,2,8.43,3Z" transform="translate(-124.46 -77.21)"/><path class="cls-15" d="M1325.57,679.72a101.08,101.08,0,0,1-25.82.9,180.67,180.67,0,0,1-35.45-6.89c-12.34-3.57-24.28-7.59-36.09-11.74,13.26,5.91,27,12.26,41.88,18.15,5.73,2.26,11.56,4.33,17.49,6.17l.33-.39s-.08.13-.24.42a197.6,197.6,0,0,0,19.29,5,159.1,159.1,0,0,0,38,3.29,144.21,144.21,0,0,0,15.07-1.36,110.8,110.8,0,0,0,20.17-4.73l1.07-.37a110.28,110.28,0,0,0,18.62-8.69c-16.5-4.69-32.26-9.59-47.46-14.13a18.14,18.14,0,0,1-1.48,2,28.87,28.87,0,0,1-7.56,6,54.42,54.42,0,0,1-15,5.81C1327.48,679.34,1326.53,679.55,1325.57,679.72Z" transform="translate(-124.46 -77.21)"/><path class="cls-18" d="M1421.05,697.84c-1.55.85-3.62,1.87-6.16,2.95A116.31,116.31,0,0,1,1394,707.3l-2.34.48c-14.14,2.92-31.57,3.48-48,1.48-21.77-2.56-41.87-8.12-60.86-14.87l-1.39-.5q-8.72-3.15-17.15-6.55c-17.08-6.84-32.21-14.1-46.6-20.59s-28.08-12.26-41.34-17.18l-.88-.32-2.08.36a65.79,65.79,0,0,0-13.64,6.34,39.2,39.2,0,0,0-6.92,5.28c1.16.41,2.32.82,3.47,1.25,24.64,9.29,46.1,21.39,67.86,32.2a353.31,353.31,0,0,0,38.29,16.81c1.36.49,2.72,1,4.09,1.44a212.14,212.14,0,0,0,25.66,7.07,273.73,273.73,0,0,0,78,5,193,193,0,0,0,46.49-9.06c.48-.15.93-.31,1.39-.47a131.07,131.07,0,0,0,20.41-8.7c1-.54,2-1.08,2.92-1.64a106.12,106.12,0,0,0,16.14-11.51c-7.89-1.59-15.76-3.36-23.6-5.25A53.9,53.9,0,0,1,1421.05,697.84Z" transform="translate(-124.46 -77.21)"/><path class="cls-17" d="M1480.62,697.71c-.29.86-.61,1.73-1,2.62a45.18,45.18,0,0,1-6.53,10.52,162,162,0,0,0,22.22-.94,123.89,123.89,0,0,0,30.79-7.43q-22.38-1.31-44.78-4.65Z" transform="translate(-124.46 -77.21)"/><path class="cls-16" d="M1150.66,669.77c-1.26-.49-2.55-.94-3.83-1.4-5.2,7.86-7.6,17.25-5.91,25.71a35.57,35.57,0,0,0,9.31,17.72,55.61,55.61,0,0,0,15,11.24,82.3,82.3,0,0,0,31.58,8.37,95.39,95.39,0,0,0,27-2.22,98.09,98.09,0,0,0,25-9.22c-11.64-5.41-22.67-11.35-33.29-17.34C1194.47,690.8,1173.93,678.58,1150.66,669.77Z" transform="translate(-124.46 -77.21)"/><path class="cls-14" d="M1208.87,647.33c19.44,6.87,39.82,12.37,60.23,14.62,7.26.83,14.31,1.31,20.67,1.42,3.85.07,7.44,0,10.68-.21a110.39,110.39,0,0,0,13.75-1.65c1.65-.3,3-.58,4-.78l10.92-2.19a510.2,510.2,0,0,0-57.14-12.9c-9-1.42-17.71-2.4-26.24-3a239.59,239.59,0,0,0-35.36,0c-3.7.36-7.39.77-11,1.26,2.77,1,5.58,2,8.43,3Z" transform="translate(-124.46 -77.21)"/><path class="cls-15" d="M1325.57,679.72a101.08,101.08,0,0,1-25.82.9,180.67,180.67,0,0,1-35.45-6.89c-12.34-3.57-24.28-7.59-36.09-11.74,13.26,5.91,27,12.26,41.88,18.15,5.73,2.26,11.56,4.33,17.49,6.17l.33-.39s-.08.13-.24.42a197.6,197.6,0,0,0,19.29,5,159.1,159.1,0,0,0,38,3.29,144.21,144.21,0,0,0,15.07-1.36,110.8,110.8,0,0,0,20.17-4.73l1.07-.37a110.28,110.28,0,0,0,18.62-8.69c-16.5-4.69-32.26-9.59-47.46-14.13a18.14,18.14,0,0,1-1.48,2,28.87,28.87,0,0,1-7.56,6,54.42,54.42,0,0,1-15,5.81C1327.48,679.34,1326.53,679.55,1325.57,679.72Z" transform="translate(-124.46 -77.21)"/><path class="cls-17" d="M1480.62,697.71c-.29.86-.61,1.73-1,2.62a45.18,45.18,0,0,1-6.53,10.52,162,162,0,0,0,22.22-.94,123.89,123.89,0,0,0,30.79-7.43q-22.38-1.31-44.78-4.65Z" transform="translate(-124.46 -77.21)"/><path class="cls-18" d="M1421.05,697.84c-1.55.85-3.62,1.87-6.16,2.95A116.31,116.31,0,0,1,1394,707.3l-2.34.48c-14.14,2.92-31.57,3.48-48,1.48-21.77-2.56-41.87-8.12-60.86-14.87l-1.39-.5q-8.72-3.15-17.15-6.55c-17.08-6.84-32.21-14.1-46.6-20.59s-28.08-12.26-41.34-17.18l-.88-.32-2.08.36a65.79,65.79,0,0,0-13.64,6.34,39.2,39.2,0,0,0-6.92,5.28c1.16.41,2.32.82,3.47,1.25,24.64,9.29,46.1,21.39,67.86,32.2a353.31,353.31,0,0,0,38.29,16.81c1.36.49,2.72,1,4.09,1.44a212.14,212.14,0,0,0,25.66,7.07,273.73,273.73,0,0,0,78,5,193,193,0,0,0,46.49-9.06c.48-.15.93-.31,1.39-.47a131.07,131.07,0,0,0,20.41-8.7c1-.54,2-1.08,2.92-1.64a106.12,106.12,0,0,0,16.14-11.51c-7.89-1.59-15.76-3.36-23.6-5.25A53.9,53.9,0,0,1,1421.05,697.84Z" transform="translate(-124.46 -77.21)"/><path class="cls-16" d="M1150.66,669.77c-1.26-.49-2.55-.94-3.83-1.4-5.2,7.86-7.6,17.25-5.91,25.71a35.57,35.57,0,0,0,9.31,17.72,55.61,55.61,0,0,0,15,11.24,82.3,82.3,0,0,0,31.58,8.37,95.39,95.39,0,0,0,27-2.22,98.09,98.09,0,0,0,25-9.22c-11.64-5.41-22.67-11.35-33.29-17.34C1194.47,690.8,1173.93,678.58,1150.66,669.77Z" transform="translate(-124.46 -77.21)"/><path class="cls-15" d="M1325.57,679.72a101.08,101.08,0,0,1-25.82.9,180.67,180.67,0,0,1-35.45-6.89c-12.34-3.57-24.28-7.59-36.09-11.74,13.26,5.91,27,12.26,41.88,18.15,5.73,2.26,11.56,4.33,17.49,6.17l.33-.39s-.08.13-.24.42a197.6,197.6,0,0,0,19.29,5,159.1,159.1,0,0,0,38,3.29,144.21,144.21,0,0,0,15.07-1.36,110.8,110.8,0,0,0,20.17-4.73l1.07-.37a110.28,110.28,0,0,0,18.62-8.69c-16.5-4.69-32.26-9.59-47.46-14.13a18.14,18.14,0,0,1-1.48,2,28.87,28.87,0,0,1-7.56,6,54.42,54.42,0,0,1-15,5.81C1327.48,679.34,1326.53,679.55,1325.57,679.72Z" transform="translate(-124.46 -77.21)"/><path class="cls-14" d="M1208.87,647.33c19.44,6.87,39.82,12.37,60.23,14.62,7.26.83,14.31,1.31,20.67,1.42,3.85.07,7.44,0,10.68-.21a110.39,110.39,0,0,0,13.75-1.65c1.65-.3,3-.58,4-.78l10.92-2.19a510.2,510.2,0,0,0-57.14-12.9c-9-1.42-17.71-2.4-26.24-3a239.59,239.59,0,0,0-35.36,0c-3.7.36-7.39.77-11,1.26,2.77,1,5.58,2,8.43,3Z" transform="translate(-124.46 -77.21)"/><path class="cls-18" d="M1421.05,697.84c-1.55.85-3.62,1.87-6.16,2.95A116.31,116.31,0,0,1,1394,707.3l-2.34.48c-14.14,2.92-31.57,3.48-48,1.48-21.77-2.56-41.87-8.12-60.86-14.87l-1.39-.5q-8.72-3.15-17.15-6.55c-17.08-6.84-32.21-14.1-46.6-20.59s-28.08-12.26-41.34-17.18l-.88-.32-2.08.36a65.79,65.79,0,0,0-13.64,6.34,39.2,39.2,0,0,0-6.92,5.28c1.16.41,2.32.82,3.47,1.25,24.64,9.29,46.1,21.39,67.86,32.2a353.31,353.31,0,0,0,38.29,16.81c1.36.49,2.72,1,4.09,1.44a212.14,212.14,0,0,0,25.66,7.07,273.73,273.73,0,0,0,78,5,193,193,0,0,0,46.49-9.06c.48-.15.93-.31,1.39-.47a131.07,131.07,0,0,0,20.41-8.7c1-.54,2-1.08,2.92-1.64a106.12,106.12,0,0,0,16.14-11.51c-7.89-1.59-15.76-3.36-23.6-5.25A53.9,53.9,0,0,1,1421.05,697.84Z" transform="translate(-124.46 -77.21)"/><path class="cls-17" d="M1480.62,697.71c-.29.86-.61,1.73-1,2.62a45.18,45.18,0,0,1-6.53,10.52,162,162,0,0,0,22.22-.94,123.89,123.89,0,0,0,30.79-7.43q-22.38-1.31-44.78-4.65Z" transform="translate(-124.46 -77.21)"/><path class="cls-19" d="M1671.47,610c-2.4-9.13-6.65-15.54-10.61-18.55s-7.2-3.21-9.19-1.54c-4.15,3.73-3.61,12.6-6.48,22-2.67,9.49-8,21.91-17.29,30.89-4.05,4.18-12.7,12.13-28.33,18.41-3.78,1.53-7.92,3-12.34,4.42a63.75,63.75,0,0,0,4.56-24.6c-.43-23.63-11.8-45-28.22-59.12a72.07,72.07,0,0,0-31.5-15.18,85.59,85.59,0,0,0-30.34-.74,98.47,98.47,0,0,0-38.23,14.35,96.53,96.53,0,0,0-31.7,34.65c-5.71,11-7,20-3.48,24.28s11.44,3.11,21.16-1.58,21.23-12.55,33-20.33c5-3.23,13.84-9.89,26.31-14.31,12.26-4.5,28.62-6.09,42.72,1.31,12.3,6.44,23,21.12,24.54,37.27a43.06,43.06,0,0,1-4.5,23.7,52.48,52.48,0,0,1-3.21,5.59c-8.79,2.17-18.07,4.09-27.35,5.69a265.09,265.09,0,0,1-58.54,3.24c-1.5-.08-3-.2-4.51-.31-1.29-.09-2.58-.18-3.87-.29a297.08,297.08,0,0,1-32-4.65q-9.57-1.89-19.12-4.28l-4.93-1.28c-25.83-6.72-50.22-14.42-73.55-21-24.8-7-48.5-12.77-71.09-16s-44.07-4-64-2.1a203.24,203.24,0,0,0-28.7,4.94c-1.26.31-2.5.65-3.75,1-2.35-.79-4.7-1.57-7-2.31-12.58-4-24.85-7.19-36.47-9.73-5.82-1.28-11.46-2.42-16.94-3.47s-11.13-1.89-16.46-2.44a264.54,264.54,0,0,0-30-1.53c-37.37.11-62.85,6.61-79.17,12.33-16.31,6.08-23.83,11.58-27.76,14.66s-4.62,3.95-4.64,4h0s1.62-.64,7.7-3.52A192.68,192.68,0,0,1,1005,631.33a251.47,251.47,0,0,1,40.48-5.12,283.16,283.16,0,0,1,57.83,3.51,363.1,363.1,0,0,1,55.32,13.66c-1.36.76-2.7,1.55-4,2.42a52.94,52.94,0,0,0-12.81,11.76c-30.46-9.26-62.73-12.24-92.46-10.65a261.3,261.3,0,0,0-49.33,7.3c-15.29,3.9-30,8.56-42.16,15.94S937.09,687.88,936.62,699a23.32,23.32,0,0,0,5.62,15.69c3.72,4.66,8.89,8.39,14.4,11.43,11.12,6.06,23.84,9.41,36.06,11.46a180.45,180.45,0,0,0,36.29,2.24c23.44-1,44.56-6.19,61.39-13.89,8.42-3.85,15.93-8.44,21.53-13.89s9.08-11.79,9.53-18a21.08,21.08,0,0,0-6.64-17.24c-4.84-4.64-11.36-8-18.06-10-13.6-3.95-26.87-3.69-38.15-2.78-22.58,2.07-39.66,6.83-51.55,12.15s-18.6,11.12-22.61,15.41a36.9,36.9,0,0,0-4.36,5.57,22,22,0,0,0-2.07,3.6c-.87,1.78-1.14,2.35-1.14,2.35l1.54-2.24a27.88,27.88,0,0,1,2.5-3.41,43.59,43.59,0,0,1,4.84-5.23c4.31-4,11.12-9.34,23-14.09s28.49-8.93,50.42-10.47c10.77-.66,23.27-.54,35,3.15a37.52,37.52,0,0,1,15.09,8.7,16.93,16.93,0,0,1,4.89,14.13c-.55,5.26-3.53,10.51-8.54,15.18s-11.83,8.75-19.71,12.23c-15.8,7-35.59,11.61-57.38,12.33A168.46,168.46,0,0,1,995,731c-11.31-2-22.65-5.15-32.12-10.43s-16.38-12.81-15.81-21.35,7.29-17.18,17.82-23.35,24.32-10.73,38.78-14.32a247.43,247.43,0,0,1,46.51-6.69c28-1.4,58.26,1.49,86.73,10.19-.4.76-.8,1.53-1.16,2.32a44.38,44.38,0,0,0,8.73,51.62,62.69,62.69,0,0,0,17.69,12.47c24.55,10.95,46.51,8.64,63,4.18a99.46,99.46,0,0,0,29-13.26,255.12,255.12,0,0,0,30.68,11.38c29.08,9,60.75,12.55,87.15,12.13,26.55-.22,48.19-4.95,58.85-8.56a108.66,108.66,0,0,0,27.86-13.42,176.87,176.87,0,0,0,38,.32c19.4-2,40.06-8,58.92-21,7.28-.1,14.48-.39,21.44-.93a209.44,209.44,0,0,0,31.68-4.5,106.56,106.56,0,0,0,26.77-10,77.14,77.14,0,0,0,17.11-12.61c9.39-9.1,15.62-21.43,18.45-33A66.93,66.93,0,0,0,1671.47,610ZM1351,667.29a18.14,18.14,0,0,0,1.48-2c15.2,4.54,31,9.44,47.46,14.13a110.28,110.28,0,0,1-18.62,8.69l-1.07.37a110.8,110.8,0,0,1-20.17,4.73,144.21,144.21,0,0,1-15.07,1.36,159.1,159.1,0,0,1-38-3.29,197.6,197.6,0,0,1-19.29-5c.16-.29.24-.42.24-.42l-.33.39c-5.93-1.84-11.76-3.91-17.49-6.17-14.91-5.89-28.62-12.24-41.88-18.15,11.81,4.15,23.75,8.17,36.09,11.74a180.67,180.67,0,0,0,35.45,6.89,101.08,101.08,0,0,0,25.82-.9c1-.17,1.91-.38,2.84-.6a54.42,54.42,0,0,0,15-5.81A28.87,28.87,0,0,0,1351,667.29Zm-140.57-24.6a239.59,239.59,0,0,1,35.36,0c8.53.59,17.27,1.57,26.24,3a510.2,510.2,0,0,1,57.14,12.9l-10.92,2.19c-1,.2-2.39.48-4,.78a110.39,110.39,0,0,1-13.75,1.65c-3.24.21-6.83.28-10.68.21-6.36-.11-13.41-.59-20.67-1.42-20.41-2.25-40.79-7.75-60.23-14.62l-1-.37c-2.85-1-5.66-2-8.43-3C1203,643.46,1206.72,643.05,1210.42,642.69Zm13.44,86.5a95.39,95.39,0,0,1-27,2.22,82.3,82.3,0,0,1-31.58-8.37,55.61,55.61,0,0,1-15-11.24,35.57,35.57,0,0,1-9.31-17.72c-1.69-8.46.71-17.85,5.91-25.71,1.28.46,2.57.91,3.83,1.4,23.27,8.81,43.81,21,64.92,32.86,10.62,6,21.65,11.93,33.29,17.34A98.09,98.09,0,0,1,1223.86,729.19Zm217.5-24.07c-.94.56-1.92,1.1-2.92,1.64a131.07,131.07,0,0,1-20.41,8.7c-.46.16-.91.32-1.39.47a193,193,0,0,1-46.49,9.06,273.73,273.73,0,0,1-78-5,212.14,212.14,0,0,1-25.66-7.07c-1.37-.47-2.73-.95-4.09-1.44a353.31,353.31,0,0,1-38.29-16.81c-21.76-10.81-43.22-22.91-67.86-32.2-1.15-.43-2.31-.84-3.47-1.25a39.2,39.2,0,0,1,6.92-5.28,65.79,65.79,0,0,1,13.64-6.34l2.08-.36.88.32c13.26,4.92,27,10.67,41.34,17.18s29.52,13.75,46.6,20.59q8.43,3.39,17.15,6.55l1.39.5c19,6.75,39.09,12.31,60.86,14.87,16.45,2,33.88,1.44,48-1.48l2.34-.48a116.31,116.31,0,0,0,20.86-6.51c2.54-1.08,4.61-2.1,6.16-2.95a53.9,53.9,0,0,0,12.85-9.48c7.84,1.89,15.71,3.66,23.6,5.25A106.12,106.12,0,0,1,1441.36,705.12Zm54,4.79a162,162,0,0,1-22.22.94,45.18,45.18,0,0,0,6.53-10.52c.38-.89.7-1.76,1-2.62l.71.12q22.38,3.38,44.78,4.65A123.89,123.89,0,0,1,1495.32,709.91Z" transform="translate(-124.46 -77.21)"/><path class="cls-20" d="M897.08,311.5v77l-1.23-.2a15,15,0,0,1-7.09-3.5,9.8,9.8,0,0,1-1.06-3.21q-.72-2.93-1.24-6.43c-.36-2.34-.71-4.62-1.07-6.86a39.28,39.28,0,0,1-.53-4.24V299.69l.61.1a23.28,23.28,0,0,1,5.93,1.91,10,10,0,0,1,4.2,3.65A11.38,11.38,0,0,1,897.08,311.5Z" transform="translate(-124.46 -77.21)"/><path class="cls-21" d="M891.4,301.7a23.28,23.28,0,0,0-5.93-1.91l-.61-.1V364a39.28,39.28,0,0,0,.53,4.24c.36,2.24.71,4.52,1.07,6.86s.76,4.48,1.24,6.43a9.8,9.8,0,0,0,1.06,3.21,15,15,0,0,0,7.09,3.5l1.23.2v-77a11.38,11.38,0,0,0-1.48-6.15A10,10,0,0,0,891.4,301.7Z" transform="translate(-124.46 -77.21)"/></g></svg>